<?xml version="1.0" encoding="UTF-8" standalone="no"?>
<!-- Created with Inkscape (http://www.inkscape.org/) -->

<svg
   width="646.99939"
   height="222.00002"
   viewBox="0 0 646.99939 222.00002"
   version="1.1"
   id="svg5"
   xml:space="preserve"
   inkscape:version="1.2.2 (b0a84865, 2022-12-01)"
   sodipodi:docname="logo_newest.svg"
   xmlns:inkscape="http://www.inkscape.org/namespaces/inkscape"
   xmlns:sodipodi="http://sodipodi.sourceforge.net/DTD/sodipodi-0.dtd"
   xmlns="http://www.w3.org/2000/svg"
   xmlns:svg="http://www.w3.org/2000/svg"><sodipodi:namedview
     id="namedview7"
     pagecolor="#ffffff"
     bordercolor="#000000"
     borderopacity="0.25"
     inkscape:showpageshadow="2"
     inkscape:pageopacity="0.0"
     inkscape:pagecheckerboard="0"
     inkscape:deskcolor="#d1d1d1"
     inkscape:document-units="px"
     showgrid="false"
     inkscape:zoom="1.0460538"
     inkscape:cx="289.66005"
     inkscape:cy="110.41497"
     inkscape:window-width="1439"
     inkscape:window-height="745"
     inkscape:window-x="0"
     inkscape:window-y="25"
     inkscape:window-maximized="0"
     inkscape:current-layer="layer1" /><defs
     id="defs2"><linearGradient
       id="linearGradient2904"
       inkscape:swatch="solid"><stop
         style="stop-color:#000000;stop-opacity:1;"
         offset="0"
         id="stop2902" /></linearGradient><linearGradient
       id="linearGradient905"
       inkscape:swatch="solid"><stop
         style="stop-color:#000000;stop-opacity:1;"
         offset="0"
         id="stop903" /></linearGradient></defs><g
     inkscape:label="guitar"
     inkscape:groupmode="layer"
     id="layer1"
     transform="translate(-5.9043366e-4,0.99999845)"><path
       id="path5726"
       style="fill:#ffffff;fill-opacity:1;stroke-width:1.23390645;stroke-dasharray:none"
       d="m 32.150107,180.30145 c 0.25854,-9.99661 7.708586,-17.17618 13.590017,-24.38803 4.700873,-7.19256 -3.481113,-13.97549 -3.726977,-21.20977 -0.862425,-8.74555 8.067693,-14.56209 15.489531,-16.56034 6.848546,-0.97394 1.559984,3.89207 -2.521813,2.83735 -7.005591,0.70134 -13.804984,6.76302 -12.498472,14.26244 0.906619,7.36742 9.151904,15.19803 2.628018,22.23414 -4.755313,5.20675 -9.753484,10.84453 -11.655529,17.63504 -3.786507,12.59119 3.200763,27.2337 15.710295,31.69645 12.618822,4.84836 28.097347,5.73547 39.985754,-1.51971 10.695838,-6.95307 14.162329,-21.81064 8.665457,-33.126 -1.950011,-3.58161 -6.665446,-12.97158 -9.889796,-11.61598 3.889063,6.53519 1.597502,12.74708 -6.511166,10.86813 -8.548079,0.97417 -17.143453,-0.20236 -25.578232,-1.56917 -1.5135,-4.65981 1.112363,-12.1442 3.600329,-10.31736 -0.431485,-0.69993 5.207056,-13.50262 -2.485444,-13.303 -2.425543,-3.97833 -0.473773,-11.63289 3.31628,-9.815 -0.569449,-9.60557 0.827647,-19.27253 0.634928,-28.92412 0.693195,-23.976814 0.993376,-47.968741 1.606002,-71.943054 4.480854,-1.794697 -5.683402,-5.379366 -3.400627,-10.796288 -4.716934,3.75153 -5.446808,-4.793893 -0.319033,-1.477916 1.98955,-3.415093 0.248487,-6.454708 -3.594299,-4.749365 -1.420947,-5.250183 6.792208,0.942735 4.192331,-5.301353 0.303547,-3.3435095 -6.221891,1.635892 -4.081519,-4.0960082 7.751875,4.0011272 -0.493427,-7.9098655 7.045047,-6.5791505 5.170698,-2.09245862 16.73771,-1.5557955 12.673974,6.7727181 4.244581,-1.5816971 5.471084,3.1112066 0.525199,1.8015106 -3.453631,3.375027 1.594912,5.04548 3.905491,5.542013 -2.01865,1.703927 -7.306112,0.304875 -4.282516,5.813524 3.191833,-2.240408 7.366729,2.35249 1.703909,2.105251 -4.114631,-1.580668 0.381473,6.557502 -4.513964,7.367125 -1.324797,3.308019 -3.175847,0.64298 -0.794788,3.66278 0.17845,30.384789 0.701409,60.797305 1.288896,91.158233 1.142915,9.94279 12.205622,8.44161 17.493818,3.52247 4.223281,6.4698 -2.785099,13.90562 -3.761258,20.60116 -1.895963,7.40906 8.736839,11.05781 5.628716,18.68144 -4.060917,12.80473 -16.582579,20.74804 -28.271211,25.89782 -8.796605,3.50895 -21.288172,6.19126 -28.277612,-2.12287 -2.848073,-3.68081 -3.583854,-8.50857 -3.519736,-13.04511 z m 55.988965,-9.73584 c 3.473778,-6.74611 -4.172956,-14.72333 -5.237196,-21.99091 -1.184672,-4.64757 -4.7763,-17.55382 -9.620342,-14.0041 1.568993,6.0039 -12.130257,0.94731 -10.658758,3.10448 6.934321,-0.84641 14.898641,-0.45263 11.423466,8.63877 -3.327666,1.15251 -7.660954,0.066 -11.178222,0.1695 -4.141144,0.93579 7.957953,0.1459 9.917685,1.00374 0.296471,6.12396 1.996979,15.68772 -7.037389,12.77219 -11.735393,1.12699 14.643628,-2.34393 8.005574,6.86371 0.272783,5.96361 -13.3385,0.65312 -13.387843,2.61159 8.533729,0.97942 17.156554,-1.20213 25.567973,1.022 l 0.856784,0.0426 1.348268,-0.23255 z m -29.865848,-8.74084 c 3.869202,-4.05194 -5.136394,-1.21417 -2.148648,3.0926 -1.690296,3.33135 1.955087,6.66981 3.79476,4.22311 -1.386318,-2.1647 -1.829466,-4.7834 -1.646112,-7.31571 z m 15.006244,1.19325 c -5.013896,-0.73793 -9.340209,-2.09872 -7.724302,4.65252 0.776032,2.61868 10.15485,2.19115 7.497455,-3.06662 z m -0.887953,-7.0883 c 0.864443,-5.23893 1.119778,-10.66735 -5.838823,-8.49692 -1.325083,2.80837 -3.826508,15.38314 4.171671,12.37338 2.641111,1.0682 1.210511,-2.43876 1.667152,-3.87646 z m 14.968056,-9.70795 c 2.368668,-3.30508 8.216599,-18.52811 1.945295,-17.65794 -1.884706,3.89584 -10.470901,7.09484 -11.596307,6.5651 4.540161,5.75408 5.812498,14.01369 8.377041,20.98456 0.564965,7.61371 -1.203143,-10.19962 1.273971,-9.89172 z m -28.112606,-8.52043 c 4.132828,-1.2426 -6.113844,-0.97814 -2.720819,3.84209 -0.207649,4.70014 -0.256368,6.78007 3.09109,2.39559 0.676946,-2.04099 0.12298,-4.22484 -0.370271,-6.23768 z m 13.829254,8.43326 c 2.106291,-4.82319 0.09222,-9.07004 -5.602241,-7.28206 -3.975733,1.78588 -2.317908,9.9022 3.576829,6.99557 l 0.917008,0.0595 z M 62.860086,30.463725 c 1.76486,-4.50659 -5.206507,-8.242752 0.431063,-8.84642 1.161975,-3.037655 -5.545173,-6.554957 -0.03942,-6.374904 1.433444,-3.212084 -5.72972,-6.4774235 -0.07071,-6.7761464 0.817652,5.2867154 1.195314,12.0171664 2.243926,17.8533764 -0.142989,3.892247 1.947996,10.181259 2.746465,2.493526 1.035511,-6.732411 2.142208,-13.756293 2.296183,-20.3936815 3.034622,-2.3913644 3.176597,2.8042505 0.502483,3.0387045 -2.982648,5.114312 3.457689,1.570448 1.708272,5.701238 -4.231944,-0.04629 -1.865883,12.832298 1.725633,10.48415 -0.25379,-4.575743 0.499826,-9.603216 -0.264258,-12.828923 -0.235336,4.003018 -0.0023,-6.7848033 0.369864,-9.1617079 0.50382,-5.55448129 -12.49121,-4.0833141 -15.41673,-1.2828757 0.701536,7.6996006 1.434262,15.4801946 0.557943,23.1955456 2.403661,1.115602 3.53482,9.51363 3.209286,2.898118 z M 91.628093,190.45778 c -6.76689,-2.94517 4.506415,-9.49646 3.643973,-2.06952 -0.468257,1.47121 -2.145475,2.48105 -3.643973,2.06952 z m -12.23104,-4.52849 c -6.558748,-6.84626 9.361993,-6.21302 2.685775,-0.0292 -0.855506,0.28527 -1.833246,0.4002 -2.685775,0.0292 z m 10.116125,-6.99226 c -7.427075,-5.16191 8.443112,-7.75152 2.587894,-0.37579 -0.766882,0.36276 -1.738228,0.83705 -2.587894,0.37579 z M 49.548522,136.4107 c -8.567404,-4.71243 6.530737,-11.87641 4.907461,-2.28624 -0.538834,2.0619 -3.010376,2.99479 -4.907461,2.28624 z m 2.849493,-0.45839 c 7.267842,-5.5989 -7.746108,-9.87079 -4.523228,-1.43489 0.836346,1.57909 2.956091,2.2191 4.523228,1.43489 z"
       class="UnoptimicedTransforms"
       sodipodi:nodetypes="cssccccssssssssccccccssccsscccsscccccccscsccssssssssssssscssccsscccssccscccccscsccccsssccccccsssscccsssscsccc"
       transform="matrix(1.0733076,0,0,1.0469521,-34.502313,-0.93475333)" /></g><g
     inkscape:groupmode="layer"
     id="layer2"
     inkscape:label="words"
     style="stroke-width:2.3;stroke-dasharray:none"
     transform="translate(-5.9043366e-4,0.99999845)"><g
       aria-label="CAPTAIN FLUORO  "
       id="text10418"
       style="font-size:48px;line-height:1.1;fill:#ffffff;fill-opacity:0.90476191;stroke:#ffffff;stroke-width:2;stroke-dasharray:none;stroke-opacity:1"><path
         d="m 95.856882,42.933355 q 3.061334,0 5.151998,-0.896 2.16534,-0.896 3.65867,-2.016001 1.49334,-1.120001 2.61334,-2.016001 1.19466,-0.896 2.38933,-0.896 1.49334,0 1.49334,2.240001 0,1.194667 -0.29867,2.912001 -0.29867,1.642668 -0.82133,3.733335 -0.29867,1.269334 -1.49334,2.762668 -1.12,1.493334 -3.136,2.837335 -2.016,1.269334 -5.00267,2.165334 -2.912001,0.821334 -6.720003,0.821334 -3.808002,0 -7.616003,-1.120001 -3.808002,-1.12 -6.79467,-3.808001 -2.986668,-2.688002 -4.853336,-7.242671 -1.866667,-4.554668 -1.866667,-11.424005 0,-2.464001 0.298666,-5.674669 0.373334,-3.285335 1.344001,-6.720004 0.970667,-3.434668 2.688001,-6.720003 1.792001,-3.3600014 4.554669,-5.9733359 2.762668,-2.6133346 6.720003,-4.1813354 4.032002,-1.64266743 9.557338,-1.64266743 4.405331,0 7.616001,1.04533383 3.28534,1.0453338 5.37601,2.9120014 2.16533,1.7920008 3.136,4.256002 1.04533,2.4640015 1.04533,5.2266695 0,4.778669 -2.83733,7.01867 -2.76267,2.165334 -7.91467,2.165334 -1.64267,0 -2.09067,-0.224 -0.37334,-0.298667 -0.37334,-1.120001 -0.0747,-2.538667 -0.14933,-4.405335 -0.0747,-1.866668 -0.52267,-3.061335 -0.448,-1.269334 -1.418663,-1.792001 -0.896001,-0.597333 -2.538668,-0.597333 -2.389335,0 -4.106669,1.045334 -1.642667,0.970667 -2.837334,2.613334 -1.120001,1.568001 -1.866668,3.584002 -0.672,2.016001 -1.120001,4.106668 -0.373333,2.090668 -0.522666,4.032002 -0.07467,1.941335 -0.07467,3.360002 0,6.869337 2.240001,9.781338 2.314668,2.912001 7.093337,2.912001 z"
         style="font-size:74.6667px;font-family:PoetsenOne;-inkscape-font-specification:PoetsenOne;text-align:center;text-anchor:middle;fill:#ffffff;fill-opacity:0.90476191;stroke:#ffffff;stroke-width:2;stroke-dasharray:none;stroke-opacity:1"
         id="path10518" /><path
         d="m 142.52333,0.8213353 q 1.86667,0 3.06133,0.746667 1.26934,0.6720003 2.09067,1.8666676 0.82134,1.1200005 1.344,2.6133346 0.52267,1.493334 0.896,3.0613347 2.98667,12.0960058 4.92801,19.9360098 1.94133,7.840003 3.06133,12.693339 1.12,4.778669 1.568,7.093337 0.448,2.314668 0.448,3.210668 0,1.045334 -0.52267,1.418667 -0.448,0.373334 -1.49333,0.373334 h -3.808 q -3.21067,0 -5.152,-0.746667 -1.86667,-0.821334 -2.91201,-2.314668 -0.97066,-1.493334 -1.41866,-3.584002 -0.448,-2.165334 -0.74667,-4.853335 h -12.99201 l -2.464,10.304005 q -0.37333,1.194667 -1.71733,1.194667 h -3.95734 q -1.19466,0 -2.464,-0.224 -1.26933,-0.298667 -2.31467,-0.896001 -0.97066,-0.597333 -1.64266,-1.493334 -0.672,-0.970667 -0.672,-2.314667 0,-1.642668 1.04533,-5.376003 1.04533,-3.733335 2.61334,-8.437337 1.64266,-4.778669 3.584,-9.930672 2.016,-5.226669 3.88267,-9.856004 1.86666,-4.629336 3.36,-8.138671 1.568,-3.509335 2.38933,-4.9280024 0.59734,-1.0453338 1.04534,-1.1946672 0.52266,-0.2240001 1.86666,-0.2240001 z m -8.96,30.6880147 H 142.15 l -3.13601,-19.712009 z"
         style="font-size:74.6667px;font-family:PoetsenOne;-inkscape-font-specification:PoetsenOne;text-align:center;text-anchor:middle;fill:#ffffff;fill-opacity:0.90476191;stroke:#ffffff;stroke-width:2;stroke-dasharray:none;stroke-opacity:1"
         id="path10520" /><path
         d="m 172.98731,53.834694 q -4.25601,0 -6.04801,-1.642668 -1.71733,-1.717334 -1.71733,-5.002669 0,-0.970667 0.0747,-3.061334 0.14933,-2.165335 0.37333,-5.077336 0.224,-2.912002 0.448,-6.34667 0.29867,-3.434668 0.59733,-7.01867 0.37334,-4.405335 0.59734,-7.541337 0.29866,-3.210668 0.448,-5.450669 0.14933,-2.314668 0.224,-3.8080019 0.14933,-1.5680007 0.14933,-2.6880012 0.0747,-1.1946673 0.0747,-2.1653344 0.0747,-0.9706671 0.0747,-2.0906677 0,-0.5973336 0.37334,-0.8213337 0.37333,-0.2986668 0.74666,-0.2986668 1.94134,0 4.25601,-0.0746667 2.31466,-0.1493334 4.62933,-0.2986668 2.31467,-0.14933341 4.48,-0.22400011 2.16534,-0.14933341 3.80801,-0.14933341 4.77867,0 8.21333,1.19466722 3.43467,1.1200005 5.52534,3.3600016 2.16533,2.1653344 3.136,5.3013359 1.04533,3.136001 1.04533,7.168003 0,4.405336 -1.19466,8.512004 -1.12,4.032002 -3.584,7.168004 -2.46401,3.136001 -6.34667,5.002669 -3.88267,1.866667 -9.25867,1.866667 -3.21067,0 -5.45067,-0.672 l -1.04534,13.738673 q -0.0747,0.597334 -0.29866,0.896001 -0.224,0.224 -0.89601,0.224 z m 12.096,-42.56002 q -0.97066,0 -2.16533,0.149333 -1.19467,0.07467 -2.53867,0.224 -0.14933,3.136002 -0.37333,7.616004 -0.224,4.480002 -0.59734,9.408004 1.12,0.298667 2.16534,0.448 1.12,0.07467 2.016,0.07467 2.61333,0 4.18133,-1.194667 1.64267,-1.269334 2.53867,-3.061335 0.896,-1.792001 1.19467,-3.733335 0.29867,-1.941334 0.29867,-3.360002 0,-3.210668 -1.49334,-4.853335 -1.41867,-1.717334 -5.22667,-1.717334 z"
         style="font-size:74.6667px;font-family:PoetsenOne;-inkscape-font-specification:PoetsenOne;text-align:center;text-anchor:middle;fill:#ffffff;fill-opacity:0.90476191;stroke:#ffffff;stroke-width:2;stroke-dasharray:none;stroke-opacity:1"
         id="path10522" /><path
         d="m 233.31795,11.274674 -2.83733,41.440019 q -0.0747,1.120001 -0.82134,1.120001 h -4.10667 q -4.18133,0 -5.97333,-1.642668 -1.792,-1.642667 -1.792,-4.704002 0,-1.12 0.0747,-3.360001 0.14934,-2.240001 0.37334,-5.22667 0.224,-3.061334 0.448,-6.570669 0.29866,-3.584002 0.59733,-7.168004 0.29867,-3.658668 0.52267,-7.24267 0.29866,-3.584002 0.52266,-6.645336 h -11.94667 q -0.82133,0 -0.82133,-1.045334 l 0.224,-4.1813355 q 0.0747,-0.9706672 0.29866,-1.8666676 0.29867,-0.9706671 0.896,-1.7173342 0.59734,-0.746667 1.49334,-1.1946672 0.97067,-0.4480002 2.31467,-0.4480002 h 33.37601 q 0.448,0 0.82134,0.2240001 0.37333,0.2240001 0.37333,0.8213337 l -0.29867,4.4053355 q -0.14933,2.240001 -1.26933,3.6586684 -1.04533,1.344001 -4.40534,1.344001 z"
         style="font-size:74.6667px;font-family:PoetsenOne;-inkscape-font-specification:PoetsenOne;text-align:center;text-anchor:middle;fill:#ffffff;fill-opacity:0.90476191;stroke:#ffffff;stroke-width:2;stroke-dasharray:none;stroke-opacity:1"
         id="path10524" /><path
         d="m 269.90454,0.8213353 q 1.86667,0 3.06134,0.746667 1.26933,0.6720003 2.09066,1.8666676 0.82134,1.1200005 1.344,2.6133346 0.52267,1.493334 0.896,3.0613347 2.98667,12.0960058 4.92801,19.9360098 1.94133,7.840003 3.06133,12.693339 1.12,4.778669 1.568,7.093337 0.448,2.314668 0.448,3.210668 0,1.045334 -0.52267,1.418667 -0.448,0.373334 -1.49333,0.373334 h -3.808 q -3.21067,0 -5.152,-0.746667 -1.86667,-0.821334 -2.912,-2.314668 -0.97067,-1.493334 -1.41867,-3.584002 -0.448,-2.165334 -0.74667,-4.853335 h -12.99201 l -2.464,10.304005 q -0.37333,1.194667 -1.71733,1.194667 h -3.95734 q -1.19466,0 -2.464,-0.224 -1.26933,-0.298667 -2.31466,-0.896001 -0.97067,-0.597333 -1.64267,-1.493334 -0.672,-0.970667 -0.672,-2.314667 0,-1.642668 1.04533,-5.376003 1.04534,-3.733335 2.61334,-8.437337 1.64266,-4.778669 3.584,-9.930672 2.016,-5.226669 3.88267,-9.856004 1.86666,-4.629336 3.36,-8.138671 1.568,-3.509335 2.38933,-4.9280024 0.59734,-1.0453338 1.04534,-1.1946672 0.52266,-0.2240001 1.86666,-0.2240001 z m -8.96,30.6880147 h 8.58667 l -3.136,-19.712009 z"
         style="font-size:74.6667px;font-family:PoetsenOne;-inkscape-font-specification:PoetsenOne;text-align:center;text-anchor:middle;fill:#ffffff;fill-opacity:0.90476191;stroke:#ffffff;stroke-width:2;stroke-dasharray:none;stroke-opacity:1"
         id="path10526" /><path
         d="m 300.36851,53.834694 q -4.18134,0 -5.97334,-1.642668 -1.792,-1.642667 -1.792,-4.704002 0,-1.493334 0.224,-5.077336 0.224,-3.658668 0.59734,-8.288003 0.37333,-4.629336 0.74666,-9.781338 0.37334,-5.152003 0.74667,-9.706672 0.37333,-4.554669 0.59733,-7.9893369 0.224,-3.4346683 0.224,-4.7040023 0,-1.1200005 1.19467,-1.1200005 h 4.10667 q 4.55467,0 6.12267,1.9413343 1.568,1.9413342 1.568,5.749336 0,0.3733335 -0.14933,2.3893344 -0.0747,2.016001 -0.29867,5.077336 -0.224,3.061335 -0.52267,6.869336 -0.224,3.733336 -0.52266,7.690671 -0.224,3.957335 -0.52267,7.765337 -0.224,3.733335 -0.448,6.79467 -0.224,3.061335 -0.37333,5.152002 -0.14934,2.016001 -0.224,2.464001 -0.0747,0.597334 -0.29867,0.896001 -0.224,0.224 -0.896,0.224 z"
         style="font-size:74.6667px;font-family:PoetsenOne;-inkscape-font-specification:PoetsenOne;text-align:center;text-anchor:middle;fill:#ffffff;fill-opacity:0.90476191;stroke:#ffffff;stroke-width:2;stroke-dasharray:none;stroke-opacity:1"
         id="path10528" /><path
         d="m 349.49914,53.834694 q -3.06134,0 -4.55467,-0.896001 -1.49334,-0.896 -2.16534,-2.240001 -3.88266,-7.989337 -7.31733,-15.306674 -3.36,-7.317336 -6.86934,-14.784007 0.0747,8.064004 0.224,16.053341 0.14933,7.989338 0.29867,16.053341 0,1.120001 -1.19467,1.120001 h -4.10667 q -4.256,0 -6.048,-1.642668 -1.71734,-1.717334 -1.71734,-5.002669 0,-0.896 0.0747,-2.986668 0.14933,-2.165334 0.37333,-5.077335 0.224,-2.912002 0.448,-6.34667 0.29867,-3.509335 0.59734,-7.093337 0.448,-5.674669 0.74667,-9.408004 0.29866,-3.733335 0.448,-6.272003 0.224,-2.6133349 0.29866,-4.4053358 0.0747,-1.8666675 0.14934,-3.6586684 0,-1.1200005 1.19466,-1.1200005 h 5.97334 q 2.464,0 4.032,0.5973336 1.568,0.5226669 2.53867,1.4933341 1.04533,0.9706671 1.64267,2.240001 0.59733,1.1946673 1.12,2.5386679 1.792,4.6293351 3.136,7.9893371 1.41867,3.360002 2.464,5.89867 1.04533,2.538667 1.792,4.405335 0.82133,1.866668 1.49333,3.434668 0.672,1.568001 1.34401,3.061335 0.672,1.418667 1.41866,3.136002 0,-4.405336 -0.0747,-9.034671 0,-4.704003 -0.0747,-9.109338 0,-4.480002 -0.0747,-8.5866709 0,-4.1066686 0,-7.3920035 0,-0.6720003 1.26934,-0.6720003 h 4.10666 q 2.46401,0 3.88267,0.5226669 1.49334,0.4480002 2.31467,1.4186674 0.82133,0.8960004 1.04534,2.240001 0.29866,1.3440007 0.29866,3.0613348 0,1.8666676 -0.224,5.7493356 -0.224,3.808002 -0.52267,8.586671 -0.29866,4.778669 -0.672,9.930672 -0.37333,5.077335 -0.74666,9.408004 -0.29867,4.330669 -0.59734,7.392004 -0.224,2.986668 -0.29866,3.509335 0,0.597333 -0.448,0.896 -0.37334,0.298667 -0.896,0.298667 z"
         style="font-size:74.6667px;font-family:PoetsenOne;-inkscape-font-specification:PoetsenOne;text-align:center;text-anchor:middle;fill:#ffffff;fill-opacity:0.90476191;stroke:#ffffff;stroke-width:2;stroke-dasharray:none;stroke-opacity:1"
         id="path10530" /><path
         d="m 397.58435,32.256017 -1.41867,20.458676 q -0.0747,0.597334 -0.14933,0.896001 0,0.224 -0.672,0.224 h -4.10667 q -4.18133,0 -5.97334,-1.642668 -1.792,-1.642667 -1.792,-4.704002 0,-1.493334 0.224,-5.077336 0.224,-3.658668 0.59734,-8.288003 0.37333,-4.629336 0.74666,-9.781338 0.37334,-5.152003 0.74667,-9.706672 0.37333,-4.554669 0.59733,-7.9893369 0.224,-3.4346683 0.224,-4.7040023 0,-1.1200005 1.19467,-1.1200005 h 26.28268 q 0.448,0 0.82134,0.2240001 0.37333,0.2240001 0.37333,0.8213337 l -0.29867,4.4053355 q -0.14933,2.240001 -1.26933,3.6586684 -1.04534,1.344001 -4.40534,1.344001 h -10.304 l -0.74667,10.528005 h 10.60267 q 0.448,0 0.82134,0.224 0.37333,0.224 0.37333,0.821333 l -0.29867,4.405336 q -0.14933,2.240001 -1.26933,3.658668 -1.04534,1.344001 -4.40534,1.344001 z"
         style="font-size:74.6667px;font-family:PoetsenOne;-inkscape-font-specification:PoetsenOne;text-align:center;text-anchor:middle;fill:#ffffff;fill-opacity:0.90476191;stroke:#ffffff;stroke-width:2;stroke-dasharray:none;stroke-opacity:1"
         id="path10532" /><path
         d="m 425.88294,53.834694 q -4.18133,0 -5.97333,-1.642668 -1.792,-1.642667 -1.792,-4.704002 0,-1.493334 0.224,-5.077336 0.224,-3.658668 0.59733,-8.288003 0.37333,-4.629336 0.74667,-9.781338 0.37333,-5.152003 0.74666,-9.706672 0.37334,-4.554669 0.59734,-7.9893369 0.224,-3.4346683 0.224,-4.7040023 0,-1.1200005 1.19467,-1.1200005 h 4.10666 q 4.18134,0 5.74934,1.6426674 1.64267,1.5680008 1.64267,4.7040023 0,0.3733335 -0.0747,0.6720003 0,0.2986668 0,0.6720003 l -2.464,34.8693504 h 13.44001 q 0.448,0 0.82133,0.298666 0.37333,0.224001 0.37333,0.746667 l -0.29866,4.405336 q -0.14934,2.240001 -1.26934,3.658668 -1.04533,1.344001 -4.40533,1.344001 z"
         style="font-size:74.6667px;font-family:PoetsenOne;-inkscape-font-specification:PoetsenOne;text-align:center;text-anchor:middle;fill:#ffffff;fill-opacity:0.90476191;stroke:#ffffff;stroke-width:2;stroke-dasharray:none;stroke-opacity:1"
         id="path10534" /><path
         d="m 492.03761,29.493349 q -0.224,2.240001 -0.672,5.002669 -0.448,2.688001 -1.41867,5.525336 -0.896,2.762668 -2.464,5.376003 -1.568,2.613334 -4.032,4.704002 -2.46401,2.016001 -5.97334,3.285335 -3.43467,1.194667 -8.21334,1.194667 -4.85333,0 -8.288,-1.344001 -3.43467,-1.418667 -5.6,-3.808002 -2.16534,-2.464001 -3.13601,-5.674669 -0.97066,-3.210668 -0.97066,-6.869337 0,-1.642667 0.14933,-4.405335 0.14933,-2.837335 0.37333,-6.12267 0.29867,-3.285334 0.59734,-6.794669 0.29866,-3.584002 0.52266,-6.79467 0.29867,-3.2106685 0.52267,-5.7493364 0.224,-2.6133346 0.29867,-3.9573352 0.0747,-1.4186674 0.37333,-1.7920009 0.29867,-0.4480002 0.896,-0.4480002 h 4.10667 q 4.55467,0 6.12267,1.9413343 1.568,1.9413342 1.568,5.749336 0,0.2240001 -0.14933,2.0160014 -0.0747,1.717334 -0.29867,4.256002 -0.14933,2.538667 -0.37333,5.525336 -0.14934,2.986668 -0.37334,5.674669 -0.14933,2.688001 -0.29866,4.704002 -0.0747,2.016001 -0.0747,2.688001 0,1.269334 0.0747,2.912002 0.14933,1.642667 0.59733,3.136001 0.52267,1.493334 1.568,2.538668 1.12,0.970667 3.136,0.970667 2.53867,0 4.10667,-1.717334 1.64267,-1.717334 2.464,-4.106668 0.896,-2.389335 1.19467,-4.853336 0.37333,-2.464001 0.52267,-4.032002 0.29866,-3.808002 0.59733,-7.840004 0.37333,-4.032002 0.59733,-7.541337 0.29867,-3.5093346 0.448,-6.1226692 0.14934,-2.6133346 0.14934,-3.5840017 0,-1.4933341 0.224,-1.8666676 0.224,-0.4480002 0.97066,-0.4480002 h 4.10667 q 2.53867,0 3.95734,0.4480002 1.49333,0.4480002 2.24,1.1946672 0.74667,0.7466671 0.896,1.7173342 0.224,0.9706671 0.224,2.016001 0,0.9706671 -0.14933,3.6586684 -0.0747,2.6880017 -0.224,6.1226697 -0.14934,3.434668 -0.37334,7.093337 -0.224,3.658668 -0.52266,6.421336 z"
         style="font-size:74.6667px;font-family:PoetsenOne;-inkscape-font-specification:PoetsenOne;text-align:center;text-anchor:middle;fill:#ffffff;fill-opacity:0.90476191;stroke:#ffffff;stroke-width:2;stroke-dasharray:none;stroke-opacity:1"
         id="path10536" /><path
         d="m 526.45886,1.5716553e-6 q 5.45067,0 9.33334,1.5680007283447 3.88267,1.4933341 6.34667,4.4800022 2.464,2.9120013 3.584,7.1680035 1.12,4.181335 1.12,9.557338 0,2.986668 -0.448,6.496003 -0.37333,3.509335 -1.49333,7.093337 -1.04534,3.509335 -2.91201,6.794669 -1.86666,3.285335 -4.85333,5.824003 -2.912,2.538668 -7.01867,4.106669 -4.10667,1.493334 -9.70667,1.493334 -6.19734,0 -10.30401,-1.866668 -4.032,-1.866667 -6.496,-5.002669 -2.38933,-3.210668 -3.43467,-7.541337 -0.97067,-4.330668 -0.97067,-9.258671 0,-5.824002 1.344,-11.349338 1.34401,-5.600003 4.48001,-9.9306718 3.21067,-4.3306688 8.43733,-6.9440033 Q 518.69352,1.5716553e-6 526.45886,1.5716553e-6 Z M 524.89086,11.57334 q -2.61333,0 -4.55467,0.970668 -1.86667,0.896 -3.21067,2.464001 -1.26933,1.568 -2.09067,3.509335 -0.74666,1.941334 -1.19466,4.032002 -0.448,2.016001 -0.59734,3.957335 -0.14933,1.866667 -0.14933,3.360001 0,6.79467 2.24,9.930672 2.31467,3.136001 6.496,3.136001 3.43467,0 5.60001,-2.165334 2.16533,-2.240001 3.36,-5.301336 1.26933,-3.136001 1.71733,-6.421336 0.448,-3.360002 0.448,-5.67467 0,-5.450669 -1.86666,-8.58667 -1.86667,-3.210669 -6.19734,-3.210669 z"
         style="font-size:74.6667px;font-family:PoetsenOne;-inkscape-font-specification:PoetsenOne;text-align:center;text-anchor:middle;fill:#ffffff;fill-opacity:0.90476191;stroke:#ffffff;stroke-width:2;stroke-dasharray:none;stroke-opacity:1"
         id="path10538" /><path
         d="m 560.88011,53.834694 q -4.25601,0 -6.04801,-1.642668 -1.71733,-1.717334 -1.71733,-5.002669 0,-0.896 0.0747,-2.986668 0.14933,-2.165334 0.37333,-5.077335 0.224,-2.912002 0.448,-6.34667 0.29867,-3.509335 0.59733,-7.093337 0.59734,-7.541337 0.82134,-12.245339 0.29866,-4.7040023 0.448,-7.3920035 0.224,-3.3600016 0.448,-4.2560021 0.224,-0.9706671 0.97066,-0.9706671 2.31467,0 4.70401,-0.0746667 2.464,-0.1493334 4.704,-0.2986668 2.24,-0.14933341 4.18133,-0.22400011 2.01601,-0.14933341 3.58401,-0.14933341 4.77866,0 8.21333,1.19466722 3.43467,1.1946672 5.52534,3.3600016 2.16533,2.1653344 3.136,5.2266692 1.04533,3.0613347 1.04533,6.8693367 0,5.824003 -2.31466,10.378671 -2.31467,4.554669 -7.39201,6.944004 l 6.27201,8.960004 q 1.71733,2.538668 2.61333,3.957335 0.896,1.344001 0.896,2.016001 0,0.522667 -0.672,1.493334 -0.59733,0.896001 -1.86667,1.866668 -1.19466,0.896 -2.98666,1.568001 -1.71734,0.672 -3.88267,0.672 -2.38934,0 -4.18134,-1.568001 -1.71733,-1.568001 -3.136,-4.106668 -1.344,-2.613335 -2.38933,-5.973337 -0.97067,-3.360001 -1.86667,-7.01867 -2.688,-0.149333 -4.40534,-0.522667 -0.224,3.285335 -0.448,6.272003 -0.224,2.986669 -0.37333,5.376003 -0.14933,2.314668 -0.29867,3.882669 -0.14933,1.493334 -0.14933,1.792 -0.0747,0.597334 -0.29867,0.896001 -0.224,0.224 -0.896,0.224 z m 12.096,-42.56002 q -0.896,0 -2.016,0.149333 -1.12,0.07467 -2.38933,0.224 -0.14934,2.613335 -0.37334,6.272003 -0.14933,3.584002 -0.448,7.69067 2.61334,0.597334 4.55467,0.597334 2.31467,0 3.73334,-0.896 1.49333,-0.896001 2.31466,-2.165335 0.82134,-1.344 1.04534,-2.837334 0.29866,-1.493334 0.29866,-2.688002 0,-3.061334 -1.49333,-4.704002 -1.49333,-1.642667 -5.22667,-1.642667 z"
         style="font-size:74.6667px;font-family:PoetsenOne;-inkscape-font-specification:PoetsenOne;text-align:center;text-anchor:middle;fill:#ffffff;fill-opacity:0.90476191;stroke:#ffffff;stroke-width:2;stroke-dasharray:none;stroke-opacity:1"
         id="path10540" /><path
         d="m 625.616,1.5716553e-6 q 5.45066,0 9.33333,1.5680007283447 3.88267,1.4933341 6.34667,4.4800022 2.464,2.9120013 3.584,7.1680035 1.12001,4.181335 1.12001,9.557338 0,2.986668 -0.44801,6.496003 -0.37333,3.509335 -1.49333,7.093337 -1.04533,3.509335 -2.912,6.794669 -1.86667,3.285335 -4.85334,5.824003 -2.912,2.538668 -7.01867,4.106669 -4.10666,1.493334 -9.70667,1.493334 -6.19733,0 -10.304,-1.866668 -4.032,-1.866667 -6.49601,-5.002669 -2.38933,-3.210668 -3.43466,-7.541337 -0.97067,-4.330668 -0.97067,-9.258671 0,-5.824002 1.344,-11.349338 1.344,-5.600003 4.48,-9.9306718 3.21067,-4.3306688 8.43734,-6.9440033 Q 617.85066,1.5716553e-6 625.616,1.5716553e-6 Z M 624.04799,11.57334 q -2.61333,0 -4.55466,0.970668 -1.86667,0.896 -3.21067,2.464001 -1.26934,1.568 -2.09067,3.509335 -0.74667,1.941334 -1.19467,4.032002 -0.448,2.016001 -0.59733,3.957335 -0.14933,1.866667 -0.14933,3.360001 0,6.79467 2.24,9.930672 2.31466,3.136001 6.496,3.136001 3.43467,0 5.6,-2.165334 2.16534,-2.240001 3.36,-5.301336 1.26934,-3.136001 1.71734,-6.421336 0.448,-3.360002 0.448,-5.67467 0,-5.450669 -1.86667,-8.58667 -1.86667,-3.210669 -6.19734,-3.210669 z"
         style="font-size:74.6667px;font-family:PoetsenOne;-inkscape-font-specification:PoetsenOne;text-align:center;text-anchor:middle;fill:#ffffff;fill-opacity:0.90476191;stroke:#ffffff;stroke-width:2;stroke-dasharray:none;stroke-opacity:1"
         id="path10542" /></g><g
       aria-label="COMMUNITY  ELECTRONICS &amp;  GUITAR REPAIR SERVICES"
       id="text10512"
       style="font-size:42.6667px;font-family:PoetsenOne;-inkscape-font-specification:PoetsenOne;text-align:center;text-anchor:middle;fill:#ffffff;fill-opacity:0.90476191;stroke:#ffffff;stroke-width:2;stroke-dasharray:none;stroke-opacity:1"><path
         d="m 243.88859,106.67726 q 1.74934,0 2.944,-0.51201 1.23734,-0.512 2.09067,-1.152 0.85334,-0.64 1.49334,-1.152 0.68266,-0.512 1.36533,-0.512 0.85334,0 0.85334,1.28 0,0.68267 -0.17067,1.66401 -0.17067,0.93866 -0.46933,2.13333 -0.17067,0.72533 -0.85334,1.57867 -0.64,0.85333 -1.792,1.62133 -1.152,0.72534 -2.85867,1.23734 -1.664,0.46933 -3.84,0.46933 -2.176,0 -4.352,-0.64 -2.17601,-0.64 -3.88267,-2.176 -1.70667,-1.536 -2.77334,-4.13867 -1.06667,-2.60267 -1.06667,-6.528006 0,-1.408001 0.17067,-3.242669 0.21333,-1.877335 0.768,-3.840003 0.55467,-1.962668 1.536,-3.840003 1.024,-1.920002 2.60267,-3.413336 1.57867,-1.493335 3.84,-2.389335 2.304,-0.938668 5.46134,-0.938668 2.51734,0 4.352,0.597334 1.87734,0.597334 3.07201,1.664001 1.23733,1.024001 1.792,2.432002 0.59733,1.408001 0.59733,2.986669 0,2.730669 -1.62133,4.01067 -1.57867,1.237334 -4.52267,1.237334 -0.93867,0 -1.19467,-0.128 -0.21333,-0.170667 -0.21333,-0.640001 -0.0427,-1.450667 -0.0853,-2.517335 -0.0427,-1.066667 -0.29867,-1.749334 -0.256,-0.725334 -0.81066,-1.024001 -0.512,-0.341334 -1.45067,-0.341334 -1.36533,0 -2.34667,0.597334 -0.93867,0.554667 -1.62133,1.493335 -0.64,0.896 -1.06667,2.048001 -0.384,1.152001 -0.64,2.346668 -0.21333,1.194668 -0.29867,2.304002 -0.0427,1.109334 -0.0427,1.920002 0,3.925333 1.28,5.589333 1.32266,1.66401 4.05333,1.66401 z"
         id="path10545"
         style="fill:#ffffff;fill-opacity:0.90476191;stroke:#ffffff;stroke-width:2;stroke-dasharray:none;stroke-opacity:1" /><path
         d="m 272.30451,82.143904 q 3.11467,0 5.33334,0.896 2.21867,0.853334 3.62667,2.560002 1.408,1.664002 2.048,4.096003 0.64,2.389335 0.64,5.461338 0,1.706668 -0.256,3.712003 -0.21333,2.00533 -0.85333,4.05334 -0.59734,2.00533 -1.664,3.88267 -1.06667,1.87733 -2.77334,3.328 -1.664,1.45067 -4.01067,2.34667 -2.34667,0.85333 -5.54667,0.85333 -3.54134,0 -5.88801,-1.06667 -2.304,-1.06666 -3.712,-2.85867 -1.36533,-1.83466 -1.96267,-4.30933 -0.55466,-2.47467 -0.55466,-5.290673 0,-3.328003 0.768,-6.485338 0.768,-3.200003 2.56,-5.674671 1.83467,-2.474669 4.82134,-3.968003 2.98667,-1.536001 7.424,-1.536001 z m -0.896,6.613338 q -1.49333,0 -2.60267,0.554667 -1.06666,0.512 -1.83467,1.408001 -0.72533,0.896001 -1.19466,2.005335 -0.42667,1.109334 -0.68267,2.304002 -0.256,1.152001 -0.34133,2.261335 -0.0853,1.066667 -0.0853,1.920001 0,3.882667 1.28,5.674667 1.32267,1.79201 3.71201,1.79201 1.96266,0 3.2,-1.23734 1.23733,-1.28 1.92,-3.02933 0.72533,-1.79201 0.98133,-3.669341 0.256,-1.920001 0.256,-3.242669 0,-3.114669 -1.06666,-4.90667 -1.06667,-1.834668 -3.54134,-1.834668 z"
         id="path10547"
         style="fill:#ffffff;fill-opacity:0.90476191;stroke:#ffffff;stroke-width:2;stroke-dasharray:none;stroke-opacity:1" /><path
         d="m 314.58715,90.165243 q -0.34134,1.024001 -0.896,2.688002 -0.51201,1.621335 -1.15201,3.584003 -0.64,1.962668 -1.32266,4.181332 -0.68267,2.17601 -1.408,4.26667 -0.68267,2.09067 -1.36534,4.01067 -0.68267,1.87734 -1.23733,3.28534 -0.17067,0.34133 -0.72534,0.55467 -0.512,0.17066 -1.664,0.17066 -0.72533,0 -1.49333,-0.0853 -0.768,-0.0853 -1.45067,-0.34133 -0.64,-0.256 -1.152,-0.68267 -0.46933,-0.42667 -0.72534,-1.06667 -0.64,-2.176 -1.23733,-4.82134 -0.55467,-2.688 -1.10933,-5.46133 -0.55467,-2.773338 -1.10934,-5.418673 -0.512,-2.688002 -1.06667,-4.864004 0,0.597334 -0.0427,2.048002 -0.0427,1.450667 -0.0853,3.370669 -0.0427,1.920001 -0.128,4.138669 -0.0427,2.218667 -0.0853,4.352007 -0.0427,2.09066 -0.0853,3.92533 -0.0427,1.792 -0.0427,2.94401 0,1.28 -0.17067,1.62133 -0.128,0.34133 -0.512,0.34133 h -2.34666 q -2.43201,0 -3.45601,-0.93866 -0.98133,-0.98134 -0.98133,-2.85867 0,-0.512 0.0427,-1.70667 0.0853,-1.23734 0.21333,-2.90134 0.128,-1.664 0.256,-3.62667 0.17067,-2.00533 0.34133,-4.053332 0.21334,-2.773335 0.34134,-4.608003 0.17066,-1.877335 0.256,-3.114669 0.0853,-1.237335 0.128,-2.005335 0.0853,-0.768001 0.0853,-1.365335 0.0427,-0.597333 0.0427,-1.109334 0.0427,-0.554667 0.0427,-1.365334 0,-0.341334 0.256,-0.469334 0.256,-0.170667 0.46934,-0.170667 h 5.97334 q 1.664,0 2.73066,0.554667 1.06667,0.512001 1.74934,1.621335 0.68267,1.109334 1.10933,2.901336 0.42667,1.749334 0.768,4.181336 0.384,2.432002 0.81067,5.632004 0.46933,3.157335 1.19467,7.125335 0.68267,-2.64533 1.152,-4.39467 0.46933,-1.749331 0.768,-2.901332 0.34133,-1.194667 0.55467,-1.962668 0.21333,-0.768 0.384,-1.408001 0.17066,-0.682667 0.384,-1.450668 0.21333,-0.768 0.512,-1.920001 0.29866,-1.152001 0.72533,-2.858669 0.46934,-1.749334 1.152,-4.39467 0.0853,-0.256 0.29867,-0.469333 0.21333,-0.256001 0.768,-0.256001 h 6.656 q 1.36534,0 2.17601,0.298667 0.85333,0.256 1.32266,0.768001 0.46934,0.512 0.64,1.280001 0.17067,0.725334 0.17067,1.706668 0,0.981334 -0.128,3.200002 -0.0853,2.176002 -0.29867,4.949337 -0.17066,2.730669 -0.384,5.674667 -0.17066,2.94401 -0.384,5.46134 -0.17066,2.51734 -0.29866,4.26667 -0.128,1.74934 -0.17067,2.048 -0.0427,0.34134 -0.17067,0.512 -0.128,0.128 -0.512,0.128 h -2.34667 q -2.432,0 -3.456,-0.93866 -0.98133,-0.98134 -0.98133,-2.51734 0,-0.46933 0.0853,-1.70667 0.128,-1.23733 0.29867,-2.90133 0.17066,-1.664 0.384,-3.62667 0.21333,-2.005337 0.384,-3.968005 0.17067,-1.962668 0.29867,-3.797336 0.17066,-1.877335 0.256,-3.285336 z"
         id="path10549"
         style="fill:#ffffff;fill-opacity:0.90476191;stroke:#ffffff;stroke-width:2;stroke-dasharray:none;stroke-opacity:1" /><path
         d="m 353.32847,90.165243 q -0.34133,1.024001 -0.896,2.688002 -0.512,1.621335 -1.152,3.584003 -0.64,1.962668 -1.32267,4.181332 -0.68267,2.17601 -1.408,4.26667 -0.68267,2.09067 -1.36533,4.01067 -0.68267,1.87734 -1.23734,3.28534 -0.17066,0.34133 -0.72533,0.55467 -0.512,0.17066 -1.664,0.17066 -0.72534,0 -1.49334,-0.0853 -0.768,-0.0853 -1.45066,-0.34133 -0.64001,-0.256 -1.15201,-0.68267 -0.46933,-0.42667 -0.72533,-1.06667 -0.64,-2.176 -1.23733,-4.82134 -0.55467,-2.688 -1.10934,-5.46133 -0.55467,-2.773338 -1.10933,-5.418673 -0.512,-2.688002 -1.06667,-4.864004 0,0.597334 -0.0427,2.048002 -0.0427,1.450667 -0.0853,3.370669 -0.0427,1.920001 -0.128,4.138669 -0.0427,2.218667 -0.0853,4.352007 -0.0427,2.09066 -0.0853,3.92533 -0.0427,1.792 -0.0427,2.94401 0,1.28 -0.17067,1.62133 -0.128,0.34133 -0.512,0.34133 h -2.34667 q -2.432,0 -3.456,-0.93866 -0.98134,-0.98134 -0.98134,-2.85867 0,-0.512 0.0427,-1.70667 0.0853,-1.23734 0.21333,-2.90134 0.128,-1.664 0.256,-3.62667 0.17067,-2.00533 0.34134,-4.053332 0.21333,-2.773335 0.34133,-4.608003 0.17067,-1.877335 0.256,-3.114669 0.0853,-1.237335 0.128,-2.005335 0.0853,-0.768001 0.0853,-1.365335 0.0427,-0.597333 0.0427,-1.109334 0.0427,-0.554667 0.0427,-1.365334 0,-0.341334 0.256,-0.469334 0.256,-0.170667 0.46933,-0.170667 h 5.97334 q 1.664,0 2.73067,0.554667 1.06667,0.512001 1.74933,1.621335 0.68267,1.109334 1.10934,2.901336 0.42667,1.749334 0.768,4.181336 0.384,2.432002 0.81067,5.632004 0.46933,3.157335 1.19466,7.125335 0.68267,-2.64533 1.152,-4.39467 0.46934,-1.749331 0.76801,-2.901332 0.34133,-1.194667 0.55466,-1.962668 0.21334,-0.768 0.384,-1.408001 0.17067,-0.682667 0.384,-1.450668 0.21334,-0.768 0.512,-1.920001 0.29867,-1.152001 0.72534,-2.858669 0.46933,-1.749334 1.152,-4.39467 0.0853,-0.256 0.29866,-0.469333 0.21334,-0.256001 0.76801,-0.256001 h 6.656 q 1.36533,0 2.176,0.298667 0.85334,0.256 1.32267,0.768001 0.46933,0.512 0.64,1.280001 0.17067,0.725334 0.17067,1.706668 0,0.981334 -0.128,3.200002 -0.0853,2.176002 -0.29867,4.949337 -0.17067,2.730669 -0.384,5.674667 -0.17067,2.94401 -0.384,5.46134 -0.17067,2.51734 -0.29867,4.26667 -0.128,1.74934 -0.17066,2.048 -0.0427,0.34134 -0.17067,0.512 -0.128,0.128 -0.512,0.128 h -2.34667 q -2.432,0 -3.456,-0.93866 -0.98134,-0.98134 -0.98134,-2.51734 0,-0.46933 0.0853,-1.70667 0.128,-1.23733 0.29866,-2.90133 0.17067,-1.664 0.384,-3.62667 0.21334,-2.005337 0.384,-3.968005 0.17067,-1.962668 0.29867,-3.797336 0.17067,-1.877335 0.256,-3.285336 z"
         id="path10551"
         style="fill:#ffffff;fill-opacity:0.90476191;stroke:#ffffff;stroke-width:2;stroke-dasharray:none;stroke-opacity:1" /><path
         d="m 388.57113,98.99725 q -0.128,1.28 -0.384,2.85867 -0.256,1.536 -0.81067,3.15733 -0.512,1.57867 -1.408,3.07201 -0.896,1.49333 -2.304,2.688 -1.408,1.152 -3.41334,1.87733 -1.96267,0.68267 -4.69334,0.68267 -2.77333,0 -4.736,-0.768 -1.96267,-0.81067 -3.2,-2.176 -1.23734,-1.408 -1.792,-3.24267 -0.55467,-1.83467 -0.55467,-3.92534 0,-0.93866 0.0853,-2.51733 0.0853,-1.621337 0.21334,-3.498672 0.17066,-1.877334 0.34133,-3.882669 0.17067,-2.048002 0.29867,-3.88267 0.17066,-1.834668 0.29866,-3.285336 0.128,-1.493334 0.17067,-2.261335 0.0427,-0.810667 0.21333,-1.024 0.17067,-0.256001 0.512,-0.256001 h 2.34667 q 2.60267,0 3.49867,1.109335 0.896,1.109334 0.896,3.285335 0,0.128 -0.0853,1.152001 -0.0427,0.981334 -0.17067,2.432002 -0.0853,1.450668 -0.21333,3.157336 -0.0853,1.706668 -0.21333,3.242669 -0.0853,1.536001 -0.17067,2.688002 -0.0427,1.152003 -0.0427,1.536003 0,0.72533 0.0427,1.664 0.0853,0.93867 0.34133,1.792 0.29867,0.85333 0.896,1.45067 0.64,0.55467 1.792,0.55467 1.45067,0 2.34667,-0.98134 0.93867,-0.98133 1.408,-2.34667 0.512,-1.36533 0.68267,-2.77333 0.21334,-1.408004 0.29867,-2.304004 0.17067,-2.176002 0.34133,-4.480004 0.21334,-2.304001 0.34134,-4.309336 0.17066,-2.005335 0.256,-3.498669 0.0853,-1.493335 0.0853,-2.048002 0,-0.853334 0.128,-1.066667 0.128,-0.256001 0.55467,-0.256001 h 2.34666 q 1.45067,0 2.26134,0.256001 0.85333,0.256 1.28,0.682667 0.42667,0.426667 0.512,0.981334 0.128,0.554667 0.128,1.152001 0,0.554667 -0.0853,2.090668 -0.0427,1.536001 -0.128,3.498669 -0.0853,1.962668 -0.21334,4.053337 -0.128,2.090668 -0.29866,3.669336 z"
         id="path10553"
         style="fill:#ffffff;fill-opacity:0.90476191;stroke:#ffffff;stroke-width:2;stroke-dasharray:none;stroke-opacity:1" /><path
         d="m 412.25107,112.90659 q -1.74933,0 -2.60267,-0.512 -0.85333,-0.512 -1.23733,-1.28 -2.21867,-4.56533 -4.18134,-8.74667 -1.92,-4.181338 -3.92534,-8.448007 0.0427,4.608003 0.128,9.173337 0.0853,4.56534 0.17067,9.17334 0,0.64 -0.68267,0.64 h -2.34666 q -2.43201,0 -3.45601,-0.93866 -0.98133,-0.98134 -0.98133,-2.85867 0,-0.512 0.0427,-1.70667 0.0853,-1.23734 0.21333,-2.90134 0.128,-1.664 0.256,-3.62667 0.17067,-2.00533 0.34133,-4.053332 0.256,-3.242669 0.42667,-5.376004 0.17067,-2.133335 0.256,-3.584003 0.128,-1.493334 0.17067,-2.517335 0.0427,-1.066667 0.0853,-2.090668 0,-0.640001 0.68267,-0.640001 h 3.41333 q 1.408,0 2.304,0.341334 0.89601,0.298667 1.45067,0.853334 0.59734,0.554667 0.93867,1.280001 0.34133,0.682667 0.64,1.450668 1.024,2.645335 1.792,4.565336 0.81067,1.920002 1.408,3.37067 0.59734,1.450667 1.024,2.517335 0.46934,1.066667 0.85334,1.962668 0.384,0.896001 0.768,1.749337 0.384,0.81066 0.81067,1.792 0,-2.517336 -0.0427,-5.162672 0,-2.688002 -0.0427,-5.205337 0,-2.560002 -0.0427,-4.90667 0,-2.346669 0,-4.224003 0,-0.384001 0.72533,-0.384001 h 2.34667 q 1.408,0 2.21867,0.298667 0.85333,0.256 1.32266,0.810668 0.46934,0.512 0.59734,1.280001 0.17066,0.768 0.17066,1.749334 0,1.066668 -0.128,3.285336 -0.128,2.176002 -0.29866,4.90667 -0.17067,2.730669 -0.384,5.674667 -0.21334,2.90134 -0.42667,5.37601 -0.17067,2.47467 -0.34133,4.224 -0.128,1.70667 -0.17067,2.00534 0,0.34133 -0.256,0.512 -0.21333,0.17066 -0.512,0.17066 z"
         id="path10555"
         style="fill:#ffffff;fill-opacity:0.90476191;stroke:#ffffff;stroke-width:2;stroke-dasharray:none;stroke-opacity:1" /><path
         d="m 426.92842,112.90659 q -2.38934,0 -3.41334,-0.93866 -1.024,-0.93867 -1.024,-2.68801 0,-0.85333 0.128,-2.90133 0.128,-2.09067 0.34133,-4.73601 0.21334,-2.64533 0.42667,-5.589333 0.21333,-2.944002 0.42667,-5.54667 0.21333,-2.602669 0.34133,-4.565337 0.128,-1.962668 0.128,-2.688002 0,-0.640001 0.68267,-0.640001 h 2.34667 q 2.60266,0 3.49867,1.109335 0.896,1.109334 0.896,3.285335 0,0.213334 -0.0853,1.365335 -0.0427,1.152001 -0.17066,2.901335 -0.128,1.749335 -0.29867,3.925336 -0.128,2.133335 -0.29867,4.39467 -0.128,2.261337 -0.29866,4.437337 -0.128,2.13333 -0.256,3.88267 -0.128,1.74933 -0.21334,2.944 -0.0853,1.152 -0.128,1.408 -0.0427,0.34134 -0.17067,0.512 -0.128,0.128 -0.512,0.128 z"
         id="path10557"
         style="fill:#ffffff;fill-opacity:0.90476191;stroke:#ffffff;stroke-width:2;stroke-dasharray:none;stroke-opacity:1" /><path
         d="m 449.7124,88.586575 -1.62134,23.680015 q -0.0427,0.64 -0.46933,0.64 h -2.34667 q -2.38933,0 -3.41333,-0.93866 -1.02401,-0.93867 -1.02401,-2.68801 0,-0.64 0.0427,-1.92 0.0853,-1.28 0.21333,-2.98667 0.12801,-1.74933 0.25601,-3.75467 0.17066,-2.047997 0.34133,-4.095999 0.17067,-2.090668 0.29867,-4.13867 0.17066,-2.048001 0.29866,-3.797336 h -6.82667 q -0.46933,0 -0.46933,-0.597334 l 0.128,-2.389335 q 0.0427,-0.554667 0.17066,-1.066667 0.17067,-0.554667 0.512,-0.981334 0.34134,-0.426667 0.85334,-0.682667 0.55467,-0.256001 1.32267,-0.256001 h 19.07201 q 0.256,0 0.46933,0.128001 0.21334,0.128 0.21334,0.469333 l -0.17067,2.517335 q -0.0853,1.280001 -0.72533,2.090669 -0.59734,0.768 -2.51734,0.768 z"
         id="path10559"
         style="fill:#ffffff;fill-opacity:0.90476191;stroke:#ffffff;stroke-width:2;stroke-dasharray:none;stroke-opacity:1" /><path
         d="m 469.55235,112.90659 q -2.56001,0 -3.49867,-0.98133 -0.93867,-1.024 -0.93867,-3.11467 0,-0.72533 0.0853,-2.34667 0.0853,-1.62133 0.384,-5.03467 -0.34133,-0.64 -0.59733,-1.10933 -0.256,-0.469336 -0.512,-0.981337 -0.256,-0.512 -0.55467,-1.194667 -0.29867,-0.682668 -0.768,-1.706668 -0.72533,-1.578668 -1.664,-3.669336 -0.896,-2.090669 -1.74933,-4.01067 -0.85334,-1.962668 -1.45067,-3.456003 -0.55467,-1.493334 -0.55467,-1.877334 0,-0.896001 2.85867,-0.896001 1.792,0 2.85867,0.384 1.10933,0.341334 1.792,0.981334 0.68267,0.597334 1.024,1.450668 0.34133,0.810667 0.64,1.749335 0.384,1.237334 0.55467,1.834668 0.17066,0.597334 0.256,0.981334 0.128,0.384 0.256,0.768 0.128,0.341334 0.34133,1.109335 0.256,0.768 0.68267,2.133335 0.42667,1.365334 1.19467,3.754669 1.23733,-2.602669 1.96266,-4.224003 0.76801,-1.621335 1.32267,-2.986669 0.55467,-1.408001 1.024,-2.858669 0.512,-1.493334 1.28,-3.754669 0.256,-0.810668 0.512,-1.024001 0.29867,-0.256 0.896,-0.256 0.21334,0 1.15201,0.08533 0.98133,0.04267 2.00533,0.298667 1.06667,0.256 1.92,0.810667 0.85334,0.554667 0.85334,1.493335 0,0.725334 -0.512,2.048001 -0.46934,1.322668 -1.28001,2.986669 -0.768,1.621335 -1.83466,3.456003 -1.024,1.834668 -2.13334,3.584002 -1.10933,1.749335 -2.21867,3.242675 -1.06666,1.45067 -1.96266,2.38933 -0.0427,1.024 -0.128,2.432 -0.0427,1.40801 -0.17067,2.81601 -0.0853,1.36533 -0.17067,2.51733 -0.0853,1.10934 -0.128,1.536 -0.0427,0.34134 -0.17067,0.512 -0.128,0.128 -0.512,0.128 z"
         id="path10561"
         style="fill:#ffffff;fill-opacity:0.90476191;stroke:#ffffff;stroke-width:2;stroke-dasharray:none;stroke-opacity:1" /><path
         d="m 217.58462,166.23997 q -2.38933,0 -3.41333,-0.93867 -1.024,-0.93867 -1.024,-2.688 0,-0.85334 0.128,-2.90134 0.128,-2.09067 0.34133,-4.736 0.21333,-2.64534 0.42667,-5.58934 0.21333,-2.944 0.42666,-5.54667 0.21334,-2.60267 0.34134,-4.56534 0.128,-1.96267 0.128,-2.688 0,-0.64 0.68266,-0.64 h 15.01868 q 0.256,0 0.46934,0.128 0.21333,0.128 0.21333,0.46933 l -0.17067,2.51734 q -0.0853,1.28 -0.72533,2.09067 -0.59734,0.768 -2.51734,0.768 h -5.888 l -0.42667,6.016 h 6.05867 q 0.256,0 0.46934,0.128 0.21333,0.128 0.21333,0.46934 l -0.17067,2.51733 q -0.0853,1.28 -0.72533,2.09067 -0.59733,0.768 -2.51734,0.768 h -3.712 l -0.46933,6.35734 h 9.38667 q 0.256,0 0.46934,0.17067 0.21333,0.128 0.21333,0.42666 l -0.17067,2.51734 q -0.0853,1.28 -0.72533,2.09067 -0.59734,0.768 -2.51734,0.768 z"
         id="path10563"
         style="fill:#ffffff;fill-opacity:0.90476191;stroke:#ffffff;stroke-width:2;stroke-dasharray:none;stroke-opacity:1" /><path
         d="m 238.96061,166.23997 q -2.38933,0 -3.41333,-0.93867 -1.024,-0.93867 -1.024,-2.688 0,-0.85334 0.128,-2.90134 0.128,-2.09067 0.34133,-4.736 0.21333,-2.64534 0.42667,-5.58934 0.21333,-2.944 0.42666,-5.54667 0.21334,-2.60267 0.34134,-4.56534 0.128,-1.96267 0.128,-2.688 0,-0.64 0.68267,-0.64 h 2.34666 q 2.38934,0 3.28534,0.93867 0.93867,0.896 0.93867,2.688 0,0.21333 -0.0427,0.384 0,0.17067 0,0.384 l -1.408,19.92535 h 7.68001 q 0.256,0 0.46933,0.17067 0.21333,0.128 0.21333,0.42666 l -0.17066,2.51734 q -0.0853,1.28 -0.72534,2.09067 -0.59733,0.768 -2.51733,0.768 z"
         id="path10565"
         style="fill:#ffffff;fill-opacity:0.90476191;stroke:#ffffff;stroke-width:2;stroke-dasharray:none;stroke-opacity:1" /><path
         d="m 258.07529,166.23997 q -2.38933,0 -3.41333,-0.93867 -1.02401,-0.93867 -1.02401,-2.688 0,-0.85334 0.128,-2.90134 0.128,-2.09067 0.34134,-4.736 0.21333,-2.64534 0.42667,-5.58934 0.21333,-2.944 0.42666,-5.54667 0.21334,-2.60267 0.34134,-4.56534 0.128,-1.96267 0.128,-2.688 0,-0.64 0.68266,-0.64 h 15.01868 q 0.256,0 0.46933,0.128 0.21334,0.128 0.21334,0.46933 l -0.17067,2.51734 q -0.0853,1.28 -0.72533,2.09067 -0.59734,0.768 -2.51734,0.768 h -5.888 l -0.42667,6.016 h 6.05867 q 0.256,0 0.46934,0.128 0.21333,0.128 0.21333,0.46934 l -0.17067,2.51733 q -0.0853,1.28 -0.72533,2.09067 -0.59734,0.768 -2.51734,0.768 h -3.712 l -0.46933,6.35734 h 9.38667 q 0.256,0 0.46933,0.17067 0.21334,0.128 0.21334,0.42666 l -0.17067,2.51734 q -0.0853,1.28 -0.72533,2.09067 -0.59734,0.768 -2.51734,0.768 z"
         id="path10567"
         style="fill:#ffffff;fill-opacity:0.90476191;stroke:#ffffff;stroke-width:2;stroke-dasharray:none;stroke-opacity:1" /><path
         d="m 287.34456,160.01063 q 1.74933,0 2.944,-0.512 1.23733,-0.512 2.09067,-1.152 0.85333,-0.64 1.49333,-1.152 0.68267,-0.512 1.36534,-0.512 0.85333,0 0.85333,1.28 0,0.68266 -0.17067,1.664 -0.17066,0.93867 -0.46933,2.13333 -0.17067,0.72534 -0.85333,1.57867 -0.64,0.85333 -1.792,1.62134 -1.15201,0.72533 -2.85867,1.23733 -1.66401,0.46933 -3.84001,0.46933 -2.176,0 -4.352,-0.64 -2.176,-0.64 -3.88267,-2.176 -1.70667,-1.536 -2.77333,-4.13867 -1.06667,-2.60267 -1.06667,-6.528 0,-1.408 0.17066,-3.24267 0.21334,-1.87734 0.76801,-3.84001 0.55466,-1.96266 1.536,-3.84 1.024,-1.92 2.60266,-3.41333 1.57867,-1.49334 3.84001,-2.38934 2.304,-0.93867 5.46134,-0.93867 2.51733,0 4.352,0.59734 1.87733,0.59733 3.072,1.664 1.23733,1.024 1.792,2.432 0.59734,1.408 0.59734,2.98667 0,2.73067 -1.62134,4.01067 -1.57867,1.23733 -4.52267,1.23733 -0.93867,0 -1.19467,-0.128 -0.21333,-0.17066 -0.21333,-0.64 -0.0427,-1.45067 -0.0853,-2.51733 -0.0427,-1.06667 -0.29867,-1.74934 -0.256,-0.72533 -0.81067,-1.024 -0.512,-0.34133 -1.45067,-0.34133 -1.36533,0 -2.34666,0.59733 -0.93867,0.55467 -1.62134,1.49334 -0.64,0.896 -1.06667,2.048 -0.384,1.152 -0.64,2.34667 -0.21333,1.19466 -0.29866,2.304 -0.0427,1.10933 -0.0427,1.92 0,3.92534 1.28,5.58934 1.32267,1.664 4.05334,1.664 z"
         id="path10569"
         style="fill:#ffffff;fill-opacity:0.90476191;stroke:#ffffff;stroke-width:2;stroke-dasharray:none;stroke-opacity:1" /><path
         d="m 314.69385,141.91995 -1.62133,23.68002 q -0.0427,0.64 -0.46934,0.64 h -2.34666 q -2.38934,0 -3.41334,-0.93867 -1.024,-0.93867 -1.024,-2.688 0,-0.64 0.0427,-1.92 0.0853,-1.28001 0.21333,-2.98667 0.128,-1.74934 0.256,-3.75467 0.17067,-2.048 0.34133,-4.09601 0.17067,-2.09066 0.29867,-4.13867 0.17067,-2.048 0.29867,-3.79733 h -6.82667 q -0.46934,0 -0.46934,-0.59734 l 0.128,-2.38933 q 0.0427,-0.55467 0.17067,-1.06667 0.17067,-0.55467 0.512,-0.98133 0.34133,-0.42667 0.85333,-0.68267 0.55467,-0.256 1.32267,-0.256 h 19.07202 q 0.256,0 0.46933,0.128 0.21333,0.128 0.21333,0.46933 l -0.17066,2.51734 q -0.0853,1.28 -0.72534,2.09067 -0.59733,0.768 -2.51733,0.768 z"
         id="path10571"
         style="fill:#ffffff;fill-opacity:0.90476191;stroke:#ffffff;stroke-width:2;stroke-dasharray:none;stroke-opacity:1" /><path
         d="m 328.51781,166.23997 q -2.432,0 -3.456,-0.93867 -0.98134,-0.98134 -0.98134,-2.85867 0,-0.512 0.0427,-1.70667 0.0853,-1.23733 0.21334,-2.90133 0.128,-1.664 0.256,-3.62667 0.17066,-2.00534 0.34133,-4.05334 0.34133,-4.30934 0.46933,-6.99734 0.17067,-2.688 0.256,-4.224 0.128,-1.92 0.256,-2.432 0.128,-0.55467 0.55467,-0.55467 1.32267,0 2.688,-0.0427 1.408,-0.0853 2.688,-0.17066 1.28,-0.0853 2.38934,-0.128 1.152,-0.0853 2.048,-0.0853 2.73067,0 4.69334,0.68267 1.96267,0.68267 3.15733,1.92 1.23734,1.23734 1.792,2.98667 0.59734,1.74934 0.59734,3.92534 0,3.328 -1.32267,5.93067 -1.32267,2.60267 -4.224,3.968 l 3.584,5.12001 q 0.98133,1.45066 1.49333,2.26133 0.512,0.768 0.512,1.152 0,0.29867 -0.384,0.85333 -0.34133,0.51201 -1.06666,1.06667 -0.68267,0.512 -1.70667,0.896 -0.98133,0.384 -2.21867,0.384 -1.36533,0 -2.38933,-0.896 -0.98134,-0.896 -1.79201,-2.34667 -0.768,-1.49333 -1.36533,-3.41333 -0.55467,-1.92 -1.06667,-4.01067 -1.536,-0.0853 -2.51733,-0.29867 -0.128,1.87734 -0.256,3.584 -0.128,1.70667 -0.21334,3.07201 -0.0853,1.32266 -0.17066,2.21867 -0.0853,0.85333 -0.0853,1.024 -0.0427,0.34133 -0.17066,0.512 -0.128,0.128 -0.512,0.128 z m 6.91201,-24.32002 q -0.512,0 -1.152,0.0853 -0.64,0.0427 -1.36534,0.128 -0.0853,1.49334 -0.21333,3.584 -0.0853,2.04801 -0.256,4.39467 1.49333,0.34134 2.60267,0.34134 1.32266,0 2.13333,-0.512 0.85334,-0.512 1.32267,-1.23734 0.46933,-0.768 0.59733,-1.62133 0.17067,-0.85334 0.17067,-1.536 0,-1.74934 -0.85333,-2.688 -0.85334,-0.93867 -2.98667,-0.93867 z"
         id="path10573"
         style="fill:#ffffff;fill-opacity:0.90476191;stroke:#ffffff;stroke-width:2;stroke-dasharray:none;stroke-opacity:1" /><path
         d="m 365.50978,135.47728 q 3.11467,0 5.33334,0.896 2.21867,0.85333 3.62667,2.56 1.408,1.664 2.048,4.096 0.64,2.38934 0.64,5.46134 0,1.70667 -0.256,3.712 -0.21333,2.00534 -0.85333,4.05334 -0.59734,2.00533 -1.66401,3.88267 -1.06666,1.87733 -2.77333,3.328 -1.664,1.45067 -4.01067,2.34667 -2.34667,0.85333 -5.54667,0.85333 -3.54134,0 -5.88801,-1.06666 -2.304,-1.06667 -3.712,-2.85867 -1.36533,-1.83467 -1.96267,-4.30934 -0.55466,-2.47467 -0.55466,-5.29067 0,-3.328 0.768,-6.48534 0.768,-3.2 2.56,-5.67467 1.83467,-2.47467 4.82134,-3.968 2.98666,-1.536 7.424,-1.536 z m -0.896,6.61334 q -1.49333,0 -2.60267,0.55466 -1.06667,0.512 -1.83467,1.408 -0.72533,0.896 -1.19466,2.00534 -0.42667,1.10933 -0.68267,2.304 -0.256,1.152 -0.34133,2.26133 -0.0853,1.06667 -0.0853,1.92001 0,3.88267 1.28,5.67467 1.32267,1.792 3.71201,1.792 1.96266,0 3.2,-1.23734 1.23733,-1.28 1.92,-3.02933 0.72533,-1.792 0.98133,-3.66934 0.256,-1.92 0.256,-3.24267 0,-3.11467 -1.06666,-4.90667 -1.06667,-1.83466 -3.54134,-1.83466 z"
         id="path10575"
         style="fill:#ffffff;fill-opacity:0.90476191;stroke:#ffffff;stroke-width:2;stroke-dasharray:none;stroke-opacity:1" /><path
         d="m 399.85642,166.23997 q -1.74934,0 -2.60267,-0.512 -0.85333,-0.512 -1.23733,-1.28 -2.21867,-4.56534 -4.18134,-8.74668 -1.92,-4.18133 -3.92534,-8.448 0.0427,4.608 0.128,9.17334 0.0853,4.56533 0.17067,9.17334 0,0.64 -0.68267,0.64 h -2.34667 q -2.432,0 -3.456,-0.93867 -0.98133,-0.98134 -0.98133,-2.85867 0,-0.512 0.0427,-1.70667 0.0853,-1.23733 0.21334,-2.90133 0.128,-1.664 0.256,-3.62667 0.17066,-2.00534 0.34133,-4.05334 0.256,-3.24267 0.42667,-5.376 0.17067,-2.13334 0.256,-3.58401 0.128,-1.49333 0.17067,-2.51733 0.0427,-1.06667 0.0853,-2.09067 0,-0.64 0.68267,-0.64 h 3.41333 q 1.408,0 2.304,0.34133 0.896,0.29867 1.45067,0.85334 0.59734,0.55467 0.93867,1.28 0.34133,0.68267 0.64,1.45067 1.024,2.64533 1.792,4.56533 0.81067,1.92 1.408,3.37067 0.59734,1.45067 1.024,2.51734 0.46934,1.06667 0.85334,1.96267 0.384,0.896 0.768,1.74933 0.384,0.81067 0.81066,1.792 0,-2.51733 -0.0427,-5.16267 0,-2.688 -0.0427,-5.20534 0,-2.56 -0.0427,-4.90667 0,-2.34666 0,-4.224 0,-0.384 0.72534,-0.384 h 2.34667 q 1.408,0 2.21866,0.29867 0.85334,0.256 1.32267,0.81066 0.46934,0.51201 0.59734,1.28001 0.17066,0.768 0.17066,1.74933 0,1.06667 -0.128,3.28534 -0.128,2.176 -0.29866,4.90667 -0.17067,2.73067 -0.384,5.67467 -0.21334,2.90133 -0.42667,5.376 -0.17067,2.47467 -0.34134,4.224 -0.128,1.70667 -0.17066,2.00534 0,0.34133 -0.256,0.512 -0.21334,0.17067 -0.512,0.17067 z"
         id="path10577"
         style="fill:#ffffff;fill-opacity:0.90476191;stroke:#ffffff;stroke-width:2;stroke-dasharray:none;stroke-opacity:1" /><path
         d="m 414.53375,166.23997 q -2.38934,0 -3.41334,-0.93867 -1.024,-0.93867 -1.024,-2.688 0,-0.85334 0.128,-2.90134 0.128,-2.09067 0.34134,-4.736 0.21333,-2.64534 0.42666,-5.58934 0.21334,-2.944 0.42667,-5.54667 0.21333,-2.60267 0.34133,-4.56534 0.128,-1.96267 0.128,-2.688 0,-0.64 0.68267,-0.64 h 2.34667 q 2.60267,0 3.49867,1.10933 0.896,1.10934 0.896,3.28534 0,0.21333 -0.0853,1.36533 -0.0427,1.15201 -0.17067,2.90134 -0.128,1.74933 -0.29867,3.92534 -0.128,2.13333 -0.29866,4.39467 -0.128,2.26133 -0.29867,4.43733 -0.128,2.13334 -0.256,3.88267 -0.128,1.74934 -0.21333,2.944 -0.0853,1.15201 -0.12801,1.40801 -0.0427,0.34133 -0.17066,0.512 -0.128,0.128 -0.512,0.128 z"
         id="path10579"
         style="fill:#ffffff;fill-opacity:0.90476191;stroke:#ffffff;stroke-width:2;stroke-dasharray:none;stroke-opacity:1" /><path
         d="m 436.29373,160.01063 q 1.74934,0 2.944,-0.512 1.23734,-0.512 2.09067,-1.152 0.85333,-0.64 1.49334,-1.152 0.68266,-0.512 1.36533,-0.512 0.85333,0 0.85333,1.28 0,0.68266 -0.17066,1.664 -0.17067,0.93867 -0.46934,2.13333 -0.17066,0.72534 -0.85333,1.57867 -0.64,0.85333 -1.792,1.62134 -1.152,0.72533 -2.85867,1.23733 -1.664,0.46933 -3.84,0.46933 -2.17601,0 -4.35201,-0.64 -2.176,-0.64 -3.88267,-2.176 -1.70666,-1.536 -2.77333,-4.13867 -1.06667,-2.60267 -1.06667,-6.528 0,-1.408 0.17067,-3.24267 0.21333,-1.87734 0.768,-3.84001 0.55467,-1.96266 1.536,-3.84 1.024,-1.92 2.60267,-3.41333 1.57867,-1.49334 3.84,-2.38934 2.304,-0.93867 5.46134,-0.93867 2.51733,0 4.352,0.59734 1.87734,0.59733 3.072,1.664 1.23734,1.024 1.792,2.432 0.59734,1.408 0.59734,2.98667 0,2.73067 -1.62134,4.01067 -1.57866,1.23733 -4.52267,1.23733 -0.93866,0 -1.19466,-0.128 -0.21334,-0.17066 -0.21334,-0.64 -0.0427,-1.45067 -0.0853,-2.51733 -0.0427,-1.06667 -0.29867,-1.74934 -0.256,-0.72533 -0.81066,-1.024 -0.512,-0.34133 -1.45067,-0.34133 -1.36534,0 -2.34667,0.59733 -0.93867,0.55467 -1.62134,1.49334 -0.64,0.896 -1.06666,2.048 -0.384,1.152 -0.64,2.34667 -0.21334,1.19466 -0.29867,2.304 -0.0427,1.10933 -0.0427,1.92 0,3.92534 1.28,5.58934 1.32267,1.664 4.05334,1.664 z"
         id="path10581"
         style="fill:#ffffff;fill-opacity:0.90476191;stroke:#ffffff;stroke-width:2;stroke-dasharray:none;stroke-opacity:1" /><path
         d="m 461.55235,135.51994 q 4.01067,0 5.93067,1.74934 1.96267,1.74933 1.96267,4.56533 0,2.38934 -1.32267,3.66934 -1.32267,1.23734 -3.79733,1.23734 -0.76801,0 -0.98134,-0.128 -0.21333,-0.17067 -0.21333,-0.64001 0,-0.42666 -0.0853,-1.10933 -0.0427,-0.68267 -0.29866,-1.32267 -0.256,-0.64 -0.81067,-1.06666 -0.55467,-0.46934 -1.536,-0.46934 -1.36534,0 -2.432,0.85334 -1.06667,0.81066 -1.06667,2.13333 0,1.152 0.85333,1.87734 0.896,0.72533 2.21867,1.36533 1.32267,0.59733 2.85867,1.23733 1.57867,0.64 2.90134,1.70667 1.32266,1.024 2.176,2.60267 0.896,1.536 0.896,3.92534 0,1.87733 -0.64,3.54133 -0.59734,1.62134 -1.83467,2.85867 -1.19467,1.19467 -3.072,1.87734 -1.83467,0.68266 -4.30934,0.68266 -2.13333,0 -3.968,-0.46933 -1.792,-0.46933 -3.15734,-1.152 -1.32266,-0.72534 -2.09067,-1.536 -0.768,-0.85334 -0.768,-1.536 0,-2.81601 0.29867,-4.05334 0.34133,-1.23733 1.19467,-1.23733 0.59733,0 1.23733,0.512 0.68267,0.512 1.536,1.152 0.85334,0.64 1.96267,1.152 1.152,0.512 2.64534,0.512 0.59733,0 1.152,-0.0853 0.59733,-0.12801 1.024,-0.38401 0.46933,-0.256 0.72533,-0.68266 0.29867,-0.42667 0.29867,-1.024 0,-1.06667 -0.81067,-1.70667 -0.81066,-0.64 -2.048,-1.152 -1.23733,-0.55467 -2.688,-1.10934 -1.408,-0.59733 -2.64534,-1.57866 -1.23733,-1.024 -2.048,-2.60267 -0.81067,-1.57867 -0.81067,-4.05334 0,-2.77333 1.02401,-4.69334 1.06666,-1.92 2.688,-3.11466 1.664,-1.23734 3.712,-1.74934 2.09067,-0.55467 4.13867,-0.55467 z"
         id="path10583"
         style="fill:#ffffff;fill-opacity:0.90476191;stroke:#ffffff;stroke-width:2;stroke-dasharray:none;stroke-opacity:1" /><path
         d="m 494.23491,141.79195 q -0.896,0 -1.57867,0.34133 -0.68267,0.34134 -1.152,0.896 -0.42667,0.55467 -0.68267,1.23734 -0.21333,0.64 -0.21333,1.32266 0,1.28001 0.768,2.17601 0.81067,0.85333 2.34667,0.85333 h 14.16534 q 0.256,0 0.46933,0.17067 0.21334,0.128 0.256,0.42666 l -0.0853,1.79201 q -0.0427,0.64 -0.21333,1.10933 -0.128,0.42667 -0.55467,0.68267 -0.384,0.256 -1.10933,0.384 -0.68267,0.0853 -1.79201,0.0853 -0.256,3.456 -1.32266,5.97334 -1.024,2.51733 -2.77334,4.18133 -1.70667,1.62134 -4.096,2.43201 -2.38934,0.81066 -5.29067,0.81066 -5.24801,0 -7.85067,-2.26133 -2.56001,-2.26134 -2.56001,-6.35734 0,-3.072 1.408,-5.03467 1.40801,-2.00533 3.96801,-3.2 -1.32267,-0.98134 -2.048,-2.47467 -0.72534,-1.49334 -0.72534,-3.15734 0,-1.664 0.72534,-3.2 0.768,-1.57867 2.21866,-2.77333 1.45067,-1.23734 3.58401,-1.96267 2.176,-0.768 5.03467,-0.768 2.21867,0 3.75467,0.46933 1.57866,0.42667 2.56,1.23733 1.024,0.76801 1.45067,1.83467 0.46933,1.024 0.46933,2.21867 0,2.176 -1.408,3.24267 -1.408,1.06667 -4.096,1.06667 -0.46934,0 -0.55467,-0.0853 -0.0853,-0.0853 -0.21333,-0.42666 -0.17067,-1.92 -0.98134,-2.56 -0.81067,-0.68267 -1.87733,-0.68267 z m -5.37601,15.01868 q 0,1.49333 0.98134,2.56 1.024,1.06667 2.816,1.06667 2.00533,0 3.41333,-1.66401 1.40801,-1.664 1.87734,-5.504 h -5.58934 q -1.70667,0 -2.60267,1.06667 -0.896,1.06666 -0.896,2.47467 z"
         id="path10585"
         style="fill:#ffffff;fill-opacity:0.90476191;stroke:#ffffff;stroke-width:2;stroke-dasharray:none;stroke-opacity:1" /><path
         d="m 145.35011,219.57334 q -2.21867,0 -3.20001,-0.896 -0.93866,-0.93867 -1.024,-2.304 -0.46933,1.45066 -2.00533,2.56 -1.49334,1.06667 -4.35201,1.06667 -1.664,0 -3.24266,-0.64 -1.57867,-0.68267 -2.81601,-2.21867 -1.23733,-1.536 -2.00533,-4.09601 -0.72534,-2.56 -0.72534,-6.35733 0,-1.45067 0.17067,-3.32801 0.17067,-1.92 0.68267,-3.88267 0.55467,-2.00533 1.536,-3.88267 1.024,-1.92 2.64533,-3.41333 1.66401,-1.49334 4.05334,-2.38934 2.38934,-0.93866 5.71734,-0.93866 2.176,0 3.88267,0.46933 1.74933,0.46933 2.944,1.32267 1.23733,0.85333 1.87734,2.09067 0.68266,1.23733 0.68266,2.77333 0,2.47467 -1.62133,3.75467 -1.62134,1.23734 -4.56534,1.23734 -0.93867,0 -1.152,-0.128 -0.17067,-0.17067 -0.21333,-0.64001 -0.0853,-0.768 -0.128,-1.536 0,-0.768 -0.21334,-1.408 -0.17066,-0.64 -0.64,-1.024 -0.46933,-0.384 -1.49333,-0.384 -2.09067,0 -3.328,1.19467 -1.23734,1.19467 -1.87734,2.90133 -0.64,1.70667 -0.81067,3.54134 -0.17066,1.792 -0.17066,3.02934 0,2.048 0.256,3.456 0.256,1.36533 0.72533,2.26133 0.512,0.85334 1.19467,1.23734 0.68267,0.34133 1.57867,0.34133 1.62133,0 2.73067,-0.68267 1.10933,-0.68266 1.32266,-2.47466 l 0.256,-2.38934 q 0.128,-1.23733 0.34134,-2.00533 0.21333,-0.81067 1.024,-0.81067 h 2.34667 q 1.06666,0 1.70666,0.256 0.68267,0.21333 1.024,0.768 0.384,0.512 0.512,1.36533 0.12801,0.85334 0.12801,2.09067 0,0.85334 -0.0853,2.26134 -0.0427,1.408 -0.17067,2.85867 -0.0853,1.45066 -0.21333,2.688 -0.128,1.19467 -0.21333,1.664 -0.0853,0.384 -0.21334,0.512 -0.128,0.128 -0.512,0.128 z"
         id="path10587"
         style="fill:#ffffff;fill-opacity:0.90476191;stroke:#ffffff;stroke-width:2;stroke-dasharray:none;stroke-opacity:1" /><path
         d="m 177.26477,205.664 q -0.128,1.28 -0.384,2.85866 -0.256,1.53601 -0.81067,3.15734 -0.512,1.57867 -1.408,3.072 -0.896,1.49334 -2.304,2.688 -1.408,1.15201 -3.41334,1.87734 -1.96266,0.68267 -4.69333,0.68267 -2.77334,0 -4.73601,-0.768 -1.96266,-0.81067 -3.2,-2.17601 -1.23733,-1.408 -1.792,-3.24266 -0.55467,-1.83467 -0.55467,-3.92534 0,-0.93867 0.0853,-2.51734 0.0853,-1.62133 0.21333,-3.49867 0.17067,-1.87733 0.34133,-3.88267 0.17067,-2.048 0.29867,-3.88266 0.17067,-1.83467 0.29867,-3.28534 0.128,-1.49333 0.17066,-2.26134 0.0427,-0.81066 0.21334,-1.024 0.17066,-0.256 0.512,-0.256 h 2.34667 q 2.60267,0 3.49867,1.10934 0.896,1.10933 0.896,3.28533 0,0.128 -0.0853,1.152 -0.0427,0.98134 -0.17066,2.43201 -0.0853,1.45066 -0.21334,3.15733 -0.0853,1.70667 -0.21333,3.24267 -0.0853,1.536 -0.17067,2.688 -0.0427,1.152 -0.0427,1.536 0,0.72534 0.0427,1.66401 0.0853,0.93866 0.34134,1.792 0.29866,0.85333 0.896,1.45066 0.64,0.55467 1.792,0.55467 1.45067,0 2.34667,-0.98133 0.93866,-0.98134 1.408,-2.34667 0.512,-1.36534 0.68266,-2.77334 0.21334,-1.408 0.29867,-2.304 0.17067,-2.176 0.34134,-4.48 0.21333,-2.304 0.34133,-4.30934 0.17067,-2.00533 0.256,-3.49867 0.0853,-1.49333 0.0853,-2.048 0,-0.85333 0.128,-1.06667 0.128,-0.256 0.55467,-0.256 h 2.34667 q 1.45067,0 2.26133,0.256 0.85334,0.256 1.28,0.68267 0.42667,0.42667 0.512,0.98133 0.128,0.55467 0.128,1.15201 0,0.55466 -0.0853,2.09066 -0.0427,1.53601 -0.128,3.49867 -0.0853,1.96267 -0.21333,4.05334 -0.128,2.09067 -0.29867,3.66934 z"
         id="path10589"
         style="fill:#ffffff;fill-opacity:0.90476191;stroke:#ffffff;stroke-width:2;stroke-dasharray:none;stroke-opacity:1" /><path
         d="m 186.26738,219.57334 q -2.38934,0 -3.41334,-0.93867 -1.024,-0.93867 -1.024,-2.688 0,-0.85333 0.128,-2.90134 0.128,-2.09066 0.34133,-4.736 0.21334,-2.64533 0.42667,-5.58934 0.21333,-2.944 0.42667,-5.54667 0.21333,-2.60267 0.34133,-4.56533 0.128,-1.96267 0.128,-2.68801 0,-0.64 0.68267,-0.64 h 2.34667 q 2.60267,0 3.49867,1.10934 0.896,1.10933 0.896,3.28533 0,0.21334 -0.0853,1.36534 -0.0427,1.152 -0.17066,2.90133 -0.128,1.74934 -0.29867,3.92534 -0.128,2.13333 -0.29867,4.39467 -0.128,2.26133 -0.29866,4.43734 -0.128,2.13333 -0.256,3.88267 -0.128,1.74933 -0.21334,2.944 -0.0853,1.152 -0.128,1.408 -0.0427,0.34133 -0.17066,0.512 -0.128,0.128 -0.51201,0.128 z"
         id="path10591"
         style="fill:#ffffff;fill-opacity:0.90476191;stroke:#ffffff;stroke-width:2;stroke-dasharray:none;stroke-opacity:1" /><path
         d="m 209.05136,195.25332 -1.62134,23.68002 q -0.0427,0.64 -0.46933,0.64 h -2.34667 q -2.38933,0 -3.41333,-0.93867 -1.024,-0.93867 -1.024,-2.688 0,-0.64 0.0427,-1.92 0.0853,-1.28 0.21334,-2.98667 0.128,-1.74933 0.256,-3.75467 0.17066,-2.048 0.34133,-4.096 0.17067,-2.09067 0.29867,-4.13867 0.17066,-2.048 0.29866,-3.79734 h -6.82667 q -0.46933,0 -0.46933,-0.59733 l 0.128,-2.38934 q 0.0427,-0.55466 0.17066,-1.06667 0.17067,-0.55466 0.512,-0.98133 0.34134,-0.42667 0.85334,-0.68267 0.55467,-0.256 1.32267,-0.256 h 19.07201 q 0.256,0 0.46933,0.128 0.21334,0.128 0.21334,0.46934 l -0.17067,2.51733 q -0.0853,1.28 -0.72533,2.09067 -0.59734,0.768 -2.51734,0.768 z"
         id="path10593"
         style="fill:#ffffff;fill-opacity:0.90476191;stroke:#ffffff;stroke-width:2;stroke-dasharray:none;stroke-opacity:1" /><path
         d="m 229.95798,189.27998 q 1.06667,0 1.74934,0.42667 0.72533,0.384 1.19467,1.06667 0.46933,0.64 0.768,1.49333 0.29866,0.85334 0.512,1.74934 1.70667,6.912 2.816,11.39201 1.10933,4.48 1.74933,7.25333 0.64001,2.73067 0.89601,4.05334 0.256,1.32267 0.256,1.83467 0,0.59733 -0.29867,0.81067 -0.256,0.21333 -0.85334,0.21333 h -2.176 q -1.83467,0 -2.944,-0.42667 -1.06667,-0.46933 -1.664,-1.32267 -0.55467,-0.85333 -0.81067,-2.048 -0.256,-1.23733 -0.42666,-2.77333 h -7.42401 l -1.408,5.888 q -0.21333,0.68267 -0.98134,0.68267 h -2.26133 q -0.68267,0 -1.408,-0.128 -0.72534,-0.17067 -1.32267,-0.512 -0.55467,-0.34133 -0.93867,-0.85333 -0.384,-0.55467 -0.384,-1.32267 0,-0.93867 0.59734,-3.072 0.59733,-2.13334 1.49333,-4.82134 0.93867,-2.73067 2.048,-5.67467 1.152,-2.98667 2.21867,-5.63201 1.06667,-2.64533 1.92,-4.65067 0.896,-2.00533 1.36534,-2.816 0.34133,-0.59733 0.59733,-0.68267 0.29867,-0.128 1.06667,-0.128 z m -5.12,17.53602 h 4.90667 l -1.792,-11.26401 z"
         id="path10595"
         style="fill:#ffffff;fill-opacity:0.90476191;stroke:#ffffff;stroke-width:2;stroke-dasharray:none;stroke-opacity:1" /><path
         d="m 247.36598,219.57334 q -2.432,0 -3.456,-0.93867 -0.98134,-0.98133 -0.98134,-2.85867 0,-0.512 0.0427,-1.70666 0.0853,-1.23734 0.21333,-2.90134 0.128,-1.664 0.256,-3.62667 0.17067,-2.00533 0.34134,-4.05334 0.34133,-4.30933 0.46933,-6.99733 0.17067,-2.68801 0.256,-4.22401 0.128,-1.92 0.256,-2.432 0.128,-0.55467 0.55467,-0.55467 1.32266,0 2.688,-0.0427 1.408,-0.0853 2.688,-0.17067 1.28,-0.0853 2.38934,-0.128 1.152,-0.0853 2.048,-0.0853 2.73067,0 4.69333,0.68266 1.96267,0.68267 3.15734,1.92001 1.23733,1.23733 1.792,2.98666 0.59734,1.74934 0.59734,3.92534 0,3.328 -1.32267,5.93067 -1.32267,2.60267 -4.22401,3.968 l 3.58401,5.12001 q 0.98133,1.45067 1.49333,2.26133 0.512,0.768 0.512,1.152 0,0.29867 -0.384,0.85334 -0.34133,0.512 -1.06667,1.06667 -0.68266,0.512 -1.70666,0.896 -0.98134,0.384 -2.21867,0.384 -1.36534,0 -2.38934,-0.896 -0.98133,-0.896 -1.792,-2.34667 -0.768,-1.49334 -1.36533,-3.41334 -0.55467,-1.92 -1.06667,-4.01067 -1.536,-0.0853 -2.51734,-0.29867 -0.128,1.87734 -0.256,3.58401 -0.128,1.70667 -0.21333,3.072 -0.0853,1.32267 -0.17067,2.21867 -0.0853,0.85333 -0.0853,1.024 -0.0427,0.34133 -0.17067,0.512 -0.128,0.128 -0.512,0.128 z m 6.912,-24.32002 q -0.512,0 -1.152,0.0853 -0.64,0.0427 -1.36533,0.128 -0.0853,1.49334 -0.21333,3.58401 -0.0853,2.048 -0.25601,4.39467 1.49334,0.34133 2.60267,0.34133 1.32267,0 2.13334,-0.512 0.85333,-0.512 1.32267,-1.23733 0.46933,-0.768 0.59733,-1.62134 0.17067,-0.85333 0.17067,-1.536 0,-1.74933 -0.85334,-2.688 -0.85333,-0.93867 -2.98667,-0.93867 z"
         id="path10597"
         style="fill:#ffffff;fill-opacity:0.90476191;stroke:#ffffff;stroke-width:2;stroke-dasharray:none;stroke-opacity:1" /><path
         d="m 282.86454,219.57334 q -2.432,0 -3.456,-0.93867 -0.98133,-0.98133 -0.98133,-2.85867 0,-0.512 0.0427,-1.70666 0.0853,-1.23734 0.21334,-2.90134 0.128,-1.664 0.256,-3.62667 0.17066,-2.00533 0.34133,-4.05334 0.34134,-4.30933 0.46934,-6.99733 0.17066,-2.68801 0.256,-4.22401 0.128,-1.92 0.256,-2.432 0.128,-0.55467 0.55466,-0.55467 1.32267,0 2.688,-0.0427 1.40801,-0.0853 2.68801,-0.17067 1.28,-0.0853 2.38933,-0.128 1.152,-0.0853 2.048,-0.0853 2.73067,0 4.69334,0.68266 1.96267,0.68267 3.15734,1.92001 1.23733,1.23733 1.792,2.98666 0.59733,1.74934 0.59733,3.92534 0,3.328 -1.32267,5.93067 -1.32266,2.60267 -4.224,3.968 l 3.584,5.12001 q 0.98134,1.45067 1.49334,2.26133 0.512,0.768 0.512,1.152 0,0.29867 -0.384,0.85334 -0.34134,0.512 -1.06667,1.06667 -0.68267,0.512 -1.70667,0.896 -0.98133,0.384 -2.21867,0.384 -1.36533,0 -2.38933,-0.896 -0.98134,-0.896 -1.792,-2.34667 -0.768,-1.49334 -1.36534,-3.41334 -0.55466,-1.92 -1.06666,-4.01067 -1.53601,-0.0853 -2.51734,-0.29867 -0.128,1.87734 -0.256,3.58401 -0.128,1.70667 -0.21333,3.072 -0.0853,1.32267 -0.17067,2.21867 -0.0853,0.85333 -0.0853,1.024 -0.0427,0.34133 -0.17067,0.512 -0.128,0.128 -0.512,0.128 z m 6.91201,-24.32002 q -0.512,0 -1.152,0.0853 -0.64,0.0427 -1.36534,0.128 -0.0853,1.49334 -0.21333,3.58401 -0.0853,2.048 -0.256,4.39467 1.49334,0.34133 2.60267,0.34133 1.32267,0 2.13333,-0.512 0.85334,-0.512 1.32267,-1.23733 0.46934,-0.768 0.59734,-1.62134 0.17066,-0.85333 0.17066,-1.536 0,-1.74933 -0.85333,-2.688 -0.85334,-0.93867 -2.98667,-0.93867 z"
         id="path10599"
         style="fill:#ffffff;fill-opacity:0.90476191;stroke:#ffffff;stroke-width:2;stroke-dasharray:none;stroke-opacity:1" /><path
         d="m 309.18983,219.57334 q -2.38933,0 -3.41333,-0.93867 -1.02401,-0.93867 -1.02401,-2.688 0,-0.85333 0.128,-2.90134 0.128,-2.09066 0.34134,-4.736 0.21333,-2.64533 0.42667,-5.58934 0.21333,-2.944 0.42666,-5.54667 0.21334,-2.60267 0.34134,-4.56533 0.128,-1.96267 0.128,-2.68801 0,-0.64 0.68266,-0.64 h 15.01868 q 0.256,0 0.46933,0.128 0.21334,0.128 0.21334,0.46934 l -0.17067,2.51733 q -0.0853,1.28 -0.72533,2.09067 -0.59734,0.768 -2.51734,0.768 h -5.888 l -0.42667,6.01601 h 6.05867 q 0.256,0 0.46934,0.128 0.21333,0.128 0.21333,0.46933 l -0.17067,2.51733 q -0.0853,1.28001 -0.72533,2.09067 -0.59734,0.768 -2.51734,0.768 h -3.712 L 312.34717,213.6 h 9.38667 q 0.256,0 0.46933,0.17067 0.21334,0.128 0.21334,0.42667 l -0.17067,2.51733 q -0.0853,1.28 -0.72533,2.09067 -0.59734,0.768 -2.51734,0.768 z"
         id="path10601"
         style="fill:#ffffff;fill-opacity:0.90476191;stroke:#ffffff;stroke-width:2;stroke-dasharray:none;stroke-opacity:1" /><path
         d="m 330.56582,219.57334 q -2.432,0 -3.456,-0.93867 -0.98133,-0.98133 -0.98133,-2.85867 0,-0.55466 0.0427,-1.74933 0.0853,-1.23734 0.21334,-2.90134 0.128,-1.664 0.256,-3.62667 0.17066,-1.96266 0.34133,-4.01067 0.21333,-2.51733 0.34133,-4.30933 0.17067,-1.83467 0.256,-3.11467 0.0853,-1.32267 0.128,-2.176 0.0853,-0.896 0.0853,-1.536 0.0427,-0.68267 0.0427,-1.23734 0.0427,-0.55467 0.0427,-1.19467 0,-0.34133 0.21333,-0.46933 0.21334,-0.17067 0.42667,-0.17067 1.10934,0 2.432,-0.0427 1.32267,-0.0853 2.64534,-0.17067 1.32267,-0.0853 2.56,-0.128 1.23733,-0.0853 2.176,-0.0853 2.73067,0 4.69334,0.68266 1.96267,0.64 3.15733,1.92001 1.23734,1.23733 1.79201,3.02933 0.59733,1.792 0.59733,4.096 0,2.51734 -0.68267,4.86401 -0.64,2.304 -2.048,4.096 -1.408,1.792 -3.62667,2.85867 -2.21867,1.06667 -5.29067,1.06667 -1.83467,0 -3.11467,-0.384 l -0.59733,7.85067 q -0.0427,0.34133 -0.17067,0.512 -0.128,0.128 -0.512,0.128 z m 6.91201,-24.32002 q -0.55467,0 -1.23734,0.0853 -0.68266,0.0427 -1.45066,0.128 -0.0853,1.79201 -0.21334,4.35201 -0.128,2.56 -0.34133,5.376 0.64,0.17067 1.23733,0.256 0.64,0.0427 1.152,0.0427 1.49334,0 2.38934,-0.68267 0.93867,-0.72533 1.45067,-1.74933 0.512,-1.024 0.68266,-2.13334 0.17067,-1.10933 0.17067,-1.92 0,-1.83467 -0.85333,-2.77333 -0.81067,-0.98134 -2.98667,-0.98134 z"
         id="path10603"
         style="fill:#ffffff;fill-opacity:0.90476191;stroke:#ffffff;stroke-width:2;stroke-dasharray:none;stroke-opacity:1" /><path
         d="m 363.88843,189.27998 q 1.06666,0 1.74933,0.42667 0.72534,0.384 1.19467,1.06667 0.46933,0.64 0.768,1.49333 0.29867,0.85334 0.512,1.74934 1.70667,6.912 2.816,11.39201 1.10934,4.48 1.74934,7.25333 0.64,2.73067 0.896,4.05334 0.256,1.32267 0.256,1.83467 0,0.59733 -0.29867,0.81067 -0.256,0.21333 -0.85333,0.21333 h -2.176 q -1.83467,0 -2.94401,-0.42667 -1.06666,-0.46933 -1.664,-1.32267 -0.55466,-0.85333 -0.81066,-2.048 -0.25601,-1.23733 -0.42667,-2.77333 h -7.42401 l -1.408,5.888 q -0.21333,0.68267 -0.98133,0.68267 h -2.26134 q -0.68266,0 -1.408,-0.128 -0.72533,-0.17067 -1.32267,-0.512 -0.55466,-0.34133 -0.93866,-0.85333 -0.384,-0.55467 -0.384,-1.32267 0,-0.93867 0.59733,-3.072 0.59733,-2.13334 1.49333,-4.82134 0.93867,-2.73067 2.04801,-5.67467 1.152,-2.98667 2.21866,-5.63201 1.06667,-2.64533 1.92001,-4.65067 0.896,-2.00533 1.36533,-2.816 0.34133,-0.59733 0.59733,-0.68267 0.29867,-0.128 1.06667,-0.128 z m -5.12001,17.53602 h 4.90667 l -1.792,-11.26401 z"
         id="path10605"
         style="fill:#ffffff;fill-opacity:0.90476191;stroke:#ffffff;stroke-width:2;stroke-dasharray:none;stroke-opacity:1" /><path
         d="m 381.29641,219.57334 q -2.38933,0 -3.41333,-0.93867 -1.024,-0.93867 -1.024,-2.688 0,-0.85333 0.128,-2.90134 0.128,-2.09066 0.34133,-4.736 0.21333,-2.64533 0.42667,-5.58934 0.21333,-2.944 0.42666,-5.54667 0.21334,-2.60267 0.34134,-4.56533 0.128,-1.96267 0.128,-2.68801 0,-0.64 0.68267,-0.64 h 2.34666 q 2.60267,0 3.49867,1.10934 0.896,1.10933 0.896,3.28533 0,0.21334 -0.0853,1.36534 -0.0427,1.152 -0.17067,2.90133 -0.128,1.74934 -0.29866,3.92534 -0.128,2.13333 -0.29867,4.39467 -0.128,2.26133 -0.29867,4.43734 -0.128,2.13333 -0.256,3.88267 -0.128,1.74933 -0.21333,2.944 -0.0853,1.152 -0.128,1.408 -0.0427,0.34133 -0.17067,0.512 -0.128,0.128 -0.512,0.128 z"
         id="path10607"
         style="fill:#ffffff;fill-opacity:0.90476191;stroke:#ffffff;stroke-width:2;stroke-dasharray:none;stroke-opacity:1" /><path
         d="m 394.69372,219.57334 q -2.432,0 -3.456,-0.93867 -0.98133,-0.98133 -0.98133,-2.85867 0,-0.512 0.0427,-1.70666 0.0853,-1.23734 0.21334,-2.90134 0.128,-1.664 0.256,-3.62667 0.17066,-2.00533 0.34133,-4.05334 0.34133,-4.30933 0.46933,-6.99733 0.17067,-2.68801 0.256,-4.22401 0.128,-1.92 0.256,-2.432 0.128,-0.55467 0.55467,-0.55467 1.32267,0 2.688,-0.0427 1.408,-0.0853 2.688,-0.17067 1.28001,-0.0853 2.38934,-0.128 1.152,-0.0853 2.048,-0.0853 2.73067,0 4.69334,0.68266 1.96267,0.68267 3.15733,1.92001 1.23734,1.23733 1.79201,2.98666 0.59733,1.74934 0.59733,3.92534 0,3.328 -1.32267,5.93067 -1.32267,2.60267 -4.224,3.968 l 3.584,5.12001 q 0.98133,1.45067 1.49334,2.26133 0.512,0.768 0.512,1.152 0,0.29867 -0.384,0.85334 -0.34134,0.512 -1.06667,1.06667 -0.68267,0.512 -1.70667,0.896 -0.98133,0.384 -2.21867,0.384 -1.36533,0 -2.38933,-0.896 -0.98134,-0.896 -1.792,-2.34667 -0.76801,-1.49334 -1.36534,-3.41334 -0.55467,-1.92 -1.06667,-4.01067 -1.536,-0.0853 -2.51733,-0.29867 -0.128,1.87734 -0.256,3.58401 -0.128,1.70667 -0.21334,3.072 -0.0853,1.32267 -0.17066,2.21867 -0.0853,0.85333 -0.0853,1.024 -0.0427,0.34133 -0.17066,0.512 -0.128,0.128 -0.512,0.128 z m 6.91201,-24.32002 q -0.512,0 -1.152,0.0853 -0.64,0.0427 -1.36534,0.128 -0.0853,1.49334 -0.21333,3.58401 -0.0853,2.048 -0.256,4.39467 1.49333,0.34133 2.60267,0.34133 1.32266,0 2.13333,-0.512 0.85334,-0.512 1.32267,-1.23733 0.46933,-0.768 0.59733,-1.62134 0.17067,-0.85333 0.17067,-1.536 0,-1.74933 -0.85333,-2.688 -0.85334,-0.93867 -2.98667,-0.93867 z"
         id="path10609"
         style="fill:#ffffff;fill-opacity:0.90476191;stroke:#ffffff;stroke-width:2;stroke-dasharray:none;stroke-opacity:1" /><path
         d="m 437.48829,188.85332 q 4.01067,0 5.93067,1.74933 1.96267,1.74934 1.96267,4.56534 0,2.38933 -1.32267,3.66933 -1.32266,1.23734 -3.79733,1.23734 -0.768,0 -0.98134,-0.128 -0.21333,-0.17067 -0.21333,-0.64 0,-0.42667 -0.0853,-1.10934 -0.0427,-0.68266 -0.29867,-1.32266 -0.256,-0.64 -0.81067,-1.06667 -0.55466,-0.46934 -1.536,-0.46934 -1.36533,0 -2.432,0.85334 -1.06667,0.81067 -1.06667,2.13333 0,1.152 0.85334,1.87734 0.896,0.72533 2.21867,1.36533 1.32266,0.59734 2.85866,1.23734 1.57867,0.64 2.90134,1.70666 1.32267,1.02401 2.176,2.60267 0.896,1.536 0.896,3.92534 0,1.87733 -0.64,3.54134 -0.59733,1.62133 -1.83467,2.85866 -1.19466,1.19467 -3.072,1.87734 -1.83467,0.68267 -4.30934,0.68267 -2.13333,0 -3.968,-0.46934 -1.792,-0.46933 -3.15733,-1.152 -1.32267,-0.72533 -2.09067,-1.536 -0.768,-0.85333 -0.768,-1.536 0,-2.816 0.29866,-4.05334 0.34134,-1.23733 1.19467,-1.23733 0.59734,0 1.23734,0.512 0.68266,0.512 1.536,1.152 0.85333,0.64 1.96267,1.152 1.152,0.512 2.64533,0.512 0.59733,0 1.152,-0.0853 0.59734,-0.128 1.024,-0.384 0.46934,-0.256 0.72534,-0.68267 0.29866,-0.42667 0.29866,-1.024 0,-1.06667 -0.81066,-1.70667 -0.81067,-0.64 -2.04801,-1.152 -1.23733,-0.55467 -2.688,-1.10933 -1.408,-0.59734 -2.64533,-1.57867 -1.23734,-1.024 -2.048,-2.60267 -0.81067,-1.57867 -0.81067,-4.05334 0,-2.77333 1.024,-4.69333 1.06667,-1.92 2.688,-3.11467 1.664,-1.23734 3.712,-1.74934 2.09067,-0.55466 4.13867,-0.55466 z"
         id="path10611"
         style="fill:#ffffff;fill-opacity:0.90476191;stroke:#ffffff;stroke-width:2;stroke-dasharray:none;stroke-opacity:1" /><path
         d="m 453.2749,219.57334 q -2.38934,0 -3.41334,-0.93867 -1.024,-0.93867 -1.024,-2.688 0,-0.85333 0.128,-2.90134 0.128,-2.09066 0.34134,-4.736 0.21333,-2.64533 0.42666,-5.58934 0.21334,-2.944 0.42667,-5.54667 0.21333,-2.60267 0.34133,-4.56533 0.128,-1.96267 0.128,-2.68801 0,-0.64 0.68267,-0.64 h 15.01868 q 0.256,0 0.46933,0.128 0.21334,0.128 0.21334,0.46934 l -0.17067,2.51733 q -0.0853,1.28 -0.72533,2.09067 -0.59734,0.768 -2.51734,0.768 h -5.888 l -0.42667,6.01601 h 6.05867 q 0.256,0 0.46933,0.128 0.21334,0.128 0.21334,0.46933 l -0.17067,2.51733 q -0.0853,1.28001 -0.72533,2.09067 -0.59734,0.768 -2.51734,0.768 h -3.712 L 456.43223,213.6 h 9.38668 q 0.256,0 0.46933,0.17067 0.21334,0.128 0.21334,0.42667 l -0.17067,2.51733 q -0.0853,1.28 -0.72534,2.09067 -0.59733,0.768 -2.51733,0.768 z"
         id="path10613"
         style="fill:#ffffff;fill-opacity:0.90476191;stroke:#ffffff;stroke-width:2;stroke-dasharray:none;stroke-opacity:1" /><path
         d="m 474.65091,219.57334 q -2.43201,0 -3.45601,-0.93867 -0.98133,-0.98133 -0.98133,-2.85867 0,-0.512 0.0427,-1.70666 0.0853,-1.23734 0.21333,-2.90134 0.128,-1.664 0.256,-3.62667 0.17067,-2.00533 0.34133,-4.05334 0.34134,-4.30933 0.46934,-6.99733 0.17066,-2.68801 0.256,-4.22401 0.128,-1.92 0.256,-2.432 0.128,-0.55467 0.55466,-0.55467 1.32267,0 2.68801,-0.0427 1.408,-0.0853 2.688,-0.17067 1.28,-0.0853 2.38933,-0.128 1.152,-0.0853 2.04801,-0.0853 2.73066,0 4.69333,0.68266 1.96267,0.68267 3.15734,1.92001 1.23733,1.23733 1.792,2.98666 0.59733,1.74934 0.59733,3.92534 0,3.328 -1.32266,5.93067 -1.32267,2.60267 -4.22401,3.968 l 3.584,5.12001 q 0.98134,1.45067 1.49334,2.26133 0.512,0.768 0.512,1.152 0,0.29867 -0.384,0.85334 -0.34133,0.512 -1.06667,1.06667 -0.68267,0.512 -1.70667,0.896 -0.98133,0.384 -2.21866,0.384 -1.36534,0 -2.38934,-0.896 -0.98133,-0.896 -1.792,-2.34667 -0.768,-1.49334 -1.36534,-3.41334 -0.55466,-1.92 -1.06666,-4.01067 -1.536,-0.0853 -2.51734,-0.29867 -0.128,1.87734 -0.256,3.58401 -0.128,1.70667 -0.21333,3.072 -0.0853,1.32267 -0.17067,2.21867 -0.0853,0.85333 -0.0853,1.024 -0.0427,0.34133 -0.17067,0.512 -0.128,0.128 -0.512,0.128 z m 6.912,-24.32002 q -0.512,0 -1.152,0.0853 -0.64,0.0427 -1.36533,0.128 -0.0853,1.49334 -0.21334,3.58401 -0.0853,2.048 -0.256,4.39467 1.49334,0.34133 2.60267,0.34133 1.32267,0 2.13334,-0.512 0.85333,-0.512 1.32266,-1.23733 0.46934,-0.768 0.59734,-1.62134 0.17066,-0.85333 0.17066,-1.536 0,-1.74933 -0.85333,-2.688 -0.85333,-0.93867 -2.98667,-0.93867 z"
         id="path10615"
         style="fill:#ffffff;fill-opacity:0.90476191;stroke:#ffffff;stroke-width:2;stroke-dasharray:none;stroke-opacity:1" /><path
         d="m 507.12013,213.216 q 0.896,-2.98667 1.536,-5.248 0.64,-2.26134 1.28,-4.65067 0.64,-2.38934 1.36534,-5.37601 0.72533,-2.98667 1.83467,-7.424 0.21333,-0.81067 0.46933,-1.024 0.29867,-0.256 1.28,-0.256 0.42667,0 1.32267,0.0853 0.93867,0.0427 1.87733,0.384 0.93867,0.29867 1.664,0.93867 0.72534,0.59733 0.72534,1.74933 0,1.024 -0.59734,3.15734 -0.55466,2.09067 -1.45066,4.77867 -0.896,2.688 -2.00534,5.632 -1.06667,2.90134 -2.13333,5.50401 -1.06667,2.60267 -1.96267,4.56533 -0.85334,1.96267 -1.28,2.73067 -0.46934,0.81067 -1.664,0.81067 h -4.48001 q -1.06666,0 -1.792,-0.384 -0.68267,-0.42667 -1.152,-1.10933 -0.46933,-0.68267 -0.768,-1.53601 -0.29867,-0.896 -0.512,-1.792 -1.45067,-6.05867 -2.51734,-10.49601 -1.024,-4.48 -1.70666,-7.46667 -0.68267,-3.02933 -1.024,-4.65067 -0.34134,-1.62133 -0.34134,-2.00533 0,-0.46934 0.68267,-0.68267 0.68267,-0.256 2.304,-0.256 1.70667,0 2.77334,0.34133 1.10933,0.34134 1.74933,0.98134 0.68267,0.59733 0.98133,1.45067 0.34134,0.81066 0.46934,1.792 0.128,0.72533 0.256,1.74933 0.128,0.98134 0.42667,3.02934 0.34133,2.048 0.896,5.54667 0.55466,3.456 1.49333,9.13067 z"
         id="path10617"
         style="fill:#ffffff;fill-opacity:0.90476191;stroke:#ffffff;stroke-width:2;stroke-dasharray:none;stroke-opacity:1" /><path
         d="m 527.21612,219.57334 q -2.38933,0 -3.41333,-0.93867 -1.024,-0.93867 -1.024,-2.688 0,-0.85333 0.128,-2.90134 0.128,-2.09066 0.34133,-4.736 0.21333,-2.64533 0.42667,-5.58934 0.21333,-2.944 0.42666,-5.54667 0.21334,-2.60267 0.34134,-4.56533 0.128,-1.96267 0.128,-2.68801 0,-0.64 0.68266,-0.64 h 2.34667 q 2.60267,0 3.49867,1.10934 0.896,1.10933 0.896,3.28533 0,0.21334 -0.0853,1.36534 -0.0427,1.152 -0.17067,2.90133 -0.128,1.74934 -0.29866,3.92534 -0.128,2.13333 -0.29867,4.39467 -0.128,2.26133 -0.29867,4.43734 -0.128,2.13333 -0.256,3.88267 -0.128,1.74933 -0.21333,2.944 -0.0853,1.152 -0.128,1.408 -0.0427,0.34133 -0.17067,0.512 -0.128,0.128 -0.512,0.128 z"
         id="path10619"
         style="fill:#ffffff;fill-opacity:0.90476191;stroke:#ffffff;stroke-width:2;stroke-dasharray:none;stroke-opacity:1" /><path
         d="m 548.9761,213.344 q 1.74934,0 2.94401,-0.512 1.23733,-0.512 2.09066,-1.152 0.85334,-0.64 1.49334,-1.152 0.68267,-0.512 1.36533,-0.512 0.85334,0 0.85334,1.28 0,0.68267 -0.17067,1.664 -0.17067,0.93867 -0.46933,2.13334 -0.17067,0.72533 -0.85334,1.57866 -0.64,0.85334 -1.792,1.62134 -1.152,0.72533 -2.85867,1.23733 -1.664,0.46934 -3.84,0.46934 -2.176,0 -4.352,-0.64 -2.17601,-0.64 -3.88267,-2.17601 -1.70667,-1.536 -2.77334,-4.13867 -1.06667,-2.60266 -1.06667,-6.528 0,-1.408 0.17067,-3.24267 0.21333,-1.87733 0.768,-3.84 0.55467,-1.96267 1.536,-3.84001 1.024,-1.92 2.60267,-3.41333 1.57867,-1.49334 3.84,-2.38934 2.30401,-0.93866 5.46134,-0.93866 2.51734,0 4.352,0.59733 1.87734,0.59733 3.07201,1.664 1.23733,1.024 1.792,2.432 0.59733,1.408 0.59733,2.98667 0,2.73067 -1.62133,4.01067 -1.57867,1.23734 -4.52267,1.23734 -0.93867,0 -1.19467,-0.128 -0.21333,-0.17067 -0.21333,-0.64 -0.0427,-1.45067 -0.0853,-2.51734 -0.0427,-1.06667 -0.29866,-1.74933 -0.256,-0.72534 -0.81067,-1.024 -0.512,-0.34134 -1.45067,-0.34134 -1.36533,0 -2.34667,0.59734 -0.93867,0.55466 -1.62133,1.49333 -0.64,0.896 -1.06667,2.048 -0.384,1.152 -0.64,2.34667 -0.21333,1.19467 -0.29867,2.304 -0.0427,1.10934 -0.0427,1.92 0,3.92534 1.28,5.58934 1.32266,1.664 4.05333,1.664 z"
         id="path10621"
         style="fill:#ffffff;fill-opacity:0.90476191;stroke:#ffffff;stroke-width:2;stroke-dasharray:none;stroke-opacity:1" /><path
         d="m 566.93872,219.57334 q -2.38934,0 -3.41334,-0.93867 -1.024,-0.93867 -1.024,-2.688 0,-0.85333 0.128,-2.90134 0.128,-2.09066 0.34133,-4.736 0.21334,-2.64533 0.42667,-5.58934 0.21333,-2.944 0.42667,-5.54667 0.21333,-2.60267 0.34133,-4.56533 0.128,-1.96267 0.128,-2.68801 0,-0.64 0.68267,-0.64 h 15.01868 q 0.256,0 0.46933,0.128 0.21333,0.128 0.21333,0.46934 l -0.17066,2.51733 q -0.0853,1.28 -0.72534,2.09067 -0.59733,0.768 -2.51733,0.768 h -5.88801 l -0.42666,6.01601 h 6.05867 q 0.256,0 0.46933,0.128 0.21334,0.128 0.21334,0.46933 l -0.17067,2.51733 q -0.0853,1.28001 -0.72534,2.09067 -0.59733,0.768 -2.51733,0.768 h -3.712 L 570.09605,213.6 h 9.38668 q 0.256,0 0.46933,0.17067 0.21333,0.128 0.21333,0.42667 l -0.17066,2.51733 q -0.0853,1.28 -0.72534,2.09067 -0.59733,0.768 -2.51733,0.768 z"
         id="path10623"
         style="fill:#ffffff;fill-opacity:0.90476191;stroke:#ffffff;stroke-width:2;stroke-dasharray:none;stroke-opacity:1" /><path
         d="m 595.61073,188.85332 q 4.01067,0 5.93067,1.74933 1.96267,1.74934 1.96267,4.56534 0,2.38933 -1.32267,3.66933 -1.32267,1.23734 -3.79733,1.23734 -0.76801,0 -0.98134,-0.128 -0.21333,-0.17067 -0.21333,-0.64 0,-0.42667 -0.0853,-1.10934 -0.0427,-0.68266 -0.29866,-1.32266 -0.256,-0.64 -0.81067,-1.06667 -0.55467,-0.46934 -1.536,-0.46934 -1.36534,0 -2.432,0.85334 -1.06667,0.81067 -1.06667,2.13333 0,1.152 0.85333,1.87734 0.896,0.72533 2.21867,1.36533 1.32267,0.59734 2.85867,1.23734 1.57867,0.64 2.90134,1.70666 1.32266,1.02401 2.176,2.60267 0.896,1.536 0.896,3.92534 0,1.87733 -0.64,3.54134 -0.59734,1.62133 -1.83467,2.85866 -1.19467,1.19467 -3.072,1.87734 -1.83467,0.68267 -4.30934,0.68267 -2.13333,0 -3.968,-0.46934 -1.792,-0.46933 -3.15734,-1.152 -1.32267,-0.72533 -2.09067,-1.536 -0.768,-0.85333 -0.768,-1.536 0,-2.816 0.29867,-4.05334 0.34133,-1.23733 1.19467,-1.23733 0.59733,0 1.23733,0.512 0.68267,0.512 1.536,1.152 0.85334,0.64 1.96267,1.152 1.152,0.512 2.64534,0.512 0.59733,0 1.152,-0.0853 0.59733,-0.128 1.024,-0.384 0.46933,-0.256 0.72533,-0.68267 0.29867,-0.42667 0.29867,-1.024 0,-1.06667 -0.81067,-1.70667 -0.81067,-0.64 -2.048,-1.152 -1.23733,-0.55467 -2.688,-1.10933 -1.408,-0.59734 -2.64534,-1.57867 -1.23733,-1.024 -2.048,-2.60267 -0.81067,-1.57867 -0.81067,-4.05334 0,-2.77333 1.02401,-4.69333 1.06666,-1.92 2.688,-3.11467 1.664,-1.23734 3.712,-1.74934 2.09067,-0.55466 4.13867,-0.55466 z"
         id="path10625"
         style="fill:#ffffff;fill-opacity:0.90476191;stroke:#ffffff;stroke-width:2;stroke-dasharray:none;stroke-opacity:1" /></g></g></svg>
